<?xml version="1.0" encoding="UTF-8" standalone="no"?>
<!-- Created with Inkscape (http://www.inkscape.org/) -->

<svg
   width="85.0mm"
   height="55.0mm"
   viewBox="0 0 85.0 55.0"
   id="SVGRoot"
   version="1.1"
   inkscape:version="1.3 (0e150ed, 2023-07-21)"
   sodipodi:docname="back-cut.svg"
   xml:space="preserve"
   xmlns:inkscape="http://www.inkscape.org/namespaces/inkscape"
   xmlns:sodipodi="http://sodipodi.sourceforge.net/DTD/sodipodi-0.dtd"
   xmlns:xlink="http://www.w3.org/1999/xlink"
   xmlns="http://www.w3.org/2000/svg"
   xmlns:svg="http://www.w3.org/2000/svg"><sodipodi:namedview
     inkscape:document-units="mm"
     inkscape:zoom="0.57539045"
     inkscape:cx="113.83574"
     inkscape:cy="135.56012"
     id="namedview1"
     pagecolor="#ffffff"
     bordercolor="#000000"
     borderopacity="0.25"
     inkscape:showpageshadow="2"
     inkscape:pageopacity="0.0"
     inkscape:pagecheckerboard="0"
     inkscape:deskcolor="#d1d1d1"
     showguides="true"
     inkscape:window-width="1312"
     inkscape:window-height="449"
     inkscape:window-x="0"
     inkscape:window-y="25"
     inkscape:window-maximized="0"
     inkscape:current-layer="printing-marks"><sodipodi:guide
       position="0,55"
       orientation="0,321.25984"
       id="guide1"
       inkscape:locked="false" /><sodipodi:guide
       position="85,55"
       orientation="207.87402,0"
       id="guide2"
       inkscape:locked="false" /><sodipodi:guide
       position="85,0"
       orientation="0,-321.25984"
       id="guide3"
       inkscape:locked="false" /><sodipodi:guide
       position="0,0"
       orientation="-207.87402,0"
       id="guide4"
       inkscape:locked="false" /><sodipodi:guide
       position="-2.5,57.5"
       orientation="226.77165,0"
       id="guide5"
       inkscape:locked="false" /><sodipodi:guide
       position="-2.5,-2.5"
       orientation="0,340.15748"
       id="guide6"
       inkscape:locked="false" /><sodipodi:guide
       position="87.5,-2.5"
       orientation="-226.77165,0"
       id="guide7"
       inkscape:locked="false" /><sodipodi:guide
       position="87.5,57.5"
       orientation="0,-340.15748"
       id="guide8"
       inkscape:locked="false" /></sodipodi:namedview><defs
     id="defs1"><filter
       id="filter-remove-color"
       x="0.15277779"
       y="0.15277777"
       width="0.69444448"
       height="0.69444443"><feColorMatrix
         color-interpolation-filters="sRGB"
         values="0 0 0 0 1 0 0 0 0 1 0 0 0 0 1 0 0 0 1 0"
         id="feColorMatrix1" /></filter><clipPath
       id="clip-0"><path
         clip-rule="nonzero"
         d="M 0 0 L 197.625 0 L 197.625 116.625 L 0 116.625 Z M 0 0 "
         id="path1" /></clipPath><clipPath
       id="clip-1"><rect
         x="0"
         y="0"
         width="198"
         height="117"
         id="rect1" /></clipPath><g
       id="source-239831"
       clip-path="url(#clip-1)"><g
         clip-path="url(#clip-0)"
         id="g2"><rect
           x="-43.4775"
           y="-25.6575"
           width="284.58"
           height="167.94"
           fill="rgb(0%, 0%, 0%)"
           fill-opacity="0.15"
           id="rect2" /></g></g><mask
       id="mask-0"><g
         filter="url(#filter-remove-color)"
         id="g3"><use
           xlink:href="#source-239831"
           id="use2" /></g></mask><clipPath
       id="clip-2"><path
         clip-rule="nonzero"
         d="M 116 29 L 197.625 29 L 197.625 116.625 L 116 116.625 Z M 116 29 "
         id="path3" /></clipPath><clipPath
       id="clip-3"><path
         clip-rule="nonzero"
         d="M 0 0 L 46 0 L 46 99 L 0 99 Z M 0 0 "
         id="path4" /></clipPath><clipPath
       id="clip-4"><rect
         x="0"
         y="0"
         width="198"
         height="117"
         id="rect4" /></clipPath><g
       id="source-239830"
       clip-path="url(#clip-4)"><g
         clip-path="url(#clip-2)"
         id="g5"><path
           fill-rule="nonzero"
           fill="rgb(90.979004%, 90.979004%, 90.979004%)"
           fill-opacity="1"
           d="M 117.675781 119.25 L 123.601562 96.300781 C 123.675781 96.300781 123.75 96.300781 123.898438 96.300781 C 124.574219 96.300781 125.175781 95.925781 125.398438 95.324219 L 140.550781 99.898438 L 150.675781 102.976562 C 150.675781 103.050781 150.675781 103.125 150.675781 103.199219 C 150.675781 103.351562 150.675781 103.5 150.75 103.648438 L 119.175781 119.398438 C 119.324219 119.398438 119.398438 119.398438 119.550781 119.398438 L 150.898438 103.800781 C 151.125 104.175781 151.5 104.324219 151.875 104.398438 L 153.675781 118.5 C 153.824219 118.5 153.898438 118.5 154.050781 118.5 L 152.25 104.398438 C 152.476562 104.324219 152.699219 104.25 152.851562 104.023438 L 157.574219 107.699219 L 172.425781 119.25 C 172.574219 119.25 172.648438 119.25 172.800781 119.25 L 153 103.800781 C 153.148438 103.574219 153.226562 103.351562 153.226562 103.050781 C 153.226562 102.898438 153.226562 102.824219 153.148438 102.675781 L 178.574219 91.273438 C 178.800781 91.648438 179.175781 91.875 179.625 91.875 L 182.625 119.023438 C 182.699219 119.023438 182.851562 119.023438 182.925781 119.101562 L 179.925781 91.875 C 180.148438 91.875 180.300781 91.726562 180.449219 91.648438 L 200.773438 114 C 200.773438 113.925781 200.851562 113.773438 200.851562 113.699219 L 180.675781 91.5 C 180.75 91.351562 180.898438 91.273438 180.898438 91.050781 L 200.175781 96 C 200.175781 95.925781 200.175781 95.773438 200.175781 95.699219 L 180.976562 90.75 C 180.976562 90.675781 180.976562 90.601562 180.976562 90.523438 C 180.976562 90.074219 180.75 89.699219 180.449219 89.476562 L 199.949219 59.324219 C 199.949219 59.175781 199.875 59.101562 199.875 58.949219 L 180.226562 89.324219 C 180.074219 89.25 179.851562 89.175781 179.625 89.175781 C 179.550781 89.175781 179.550781 89.175781 179.476562 89.175781 L 166.875 36.976562 C 167.476562 36.75 167.851562 36.226562 167.851562 35.550781 C 167.851562 35.476562 167.851562 35.398438 167.851562 35.324219 L 198.375 29.25 C 198.375 29.175781 198.375 29.101562 198.449219 29.023438 L 167.851562 35.101562 C 167.699219 34.425781 167.101562 33.976562 166.425781 33.976562 C 165.601562 33.976562 164.925781 34.648438 164.925781 35.476562 C 164.925781 36.074219 165.300781 36.601562 165.824219 36.824219 L 152.550781 73.648438 C 152.324219 73.574219 152.175781 73.574219 151.949219 73.574219 C 150.75 73.574219 149.699219 74.550781 149.699219 75.824219 C 149.699219 76.273438 149.851562 76.648438 150 76.949219 L 125.175781 93.75 C 124.875 93.375 124.425781 93.148438 123.898438 93.148438 C 123 93.148438 122.324219 93.824219 122.324219 94.726562 C 122.324219 95.398438 122.773438 96 123.375 96.226562 L 117.375 119.175781 C 117.300781 119.175781 117.300781 119.175781 117.226562 119.175781 C 117.074219 119.175781 116.925781 119.175781 116.773438 119.25 C 117.074219 119.25 117.375 119.25 117.675781 119.25 Z M 180.226562 90 C 180.449219 90.148438 180.523438 90.375 180.523438 90.675781 C 180.523438 90.449219 180.375 90.148438 180.226562 90 Z M 165.976562 37.125 C 166.125 37.125 166.199219 37.199219 166.351562 37.199219 C 166.425781 37.199219 166.5 37.199219 166.574219 37.199219 L 179.023438 88.726562 L 179.175781 89.398438 C 178.875 89.476562 178.648438 89.699219 178.5 89.925781 L 153.898438 76.949219 C 154.050781 76.648438 154.125 76.351562 154.125 75.976562 C 154.050781 75.074219 153.449219 74.25 152.699219 73.875 Z M 152.550781 74.398438 C 153.226562 74.699219 153.601562 75.300781 153.601562 75.976562 C 153.601562 76.273438 153.523438 76.5 153.375 76.726562 C 153.449219 76.5 153.523438 76.273438 153.523438 76.050781 C 153.523438 75.300781 153.074219 74.699219 152.476562 74.476562 Z M 153.824219 77.175781 L 178.425781 90.148438 C 178.351562 90.300781 178.351562 90.449219 178.351562 90.675781 C 178.351562 90.824219 178.351562 90.898438 178.425781 91.050781 L 153 102.449219 C 152.773438 102.148438 152.476562 101.925781 152.175781 101.851562 L 152.175781 78.226562 C 152.851562 78.226562 153.449219 77.773438 153.824219 77.175781 Z M 151.875 74.25 C 152.023438 74.25 152.175781 74.25 152.324219 74.324219 L 152.324219 74.398438 C 152.101562 74.324219 151.949219 74.324219 151.875 74.25 C 151.351562 74.324219 150.898438 74.476562 150.601562 74.773438 C 150.898438 74.476562 151.351562 74.25 151.875 74.25 Z M 150.074219 77.398438 C 150.449219 77.925781 151.050781 78.226562 151.726562 78.300781 L 151.726562 101.851562 C 151.273438 101.925781 150.898438 102.226562 150.675781 102.601562 L 131.101562 96.675781 L 125.476562 94.949219 C 125.476562 94.875 125.476562 94.726562 125.476562 94.648438 C 125.476562 94.351562 125.398438 94.125 125.25 93.898438 Z M 124.726562 94.050781 C 124.5 93.824219 124.199219 93.601562 123.898438 93.601562 C 124.273438 93.601562 124.574219 93.75 124.726562 94.050781 Z M 123.75 95.773438 L 123.824219 95.773438 C 124.273438 95.773438 124.648438 95.550781 124.875 95.175781 C 124.726562 95.550781 124.273438 95.851562 123.824219 95.773438 Z M 122.773438 94.648438 C 122.773438 95.101562 123.074219 95.550781 123.449219 95.699219 C 123.074219 95.550781 122.699219 95.101562 122.773438 94.648438 Z M 122.773438 94.648438 "
           id="path5" /></g><g
         clip-path="url(#clip-3)"
         id="g6"><path
           fill-rule="nonzero"
           fill="rgb(90.979004%, 90.979004%, 90.979004%)"
           fill-opacity="1"
           d="M 44.476562 22.5 C 44.398438 22.5 44.324219 22.5 44.25 22.5 L 37.050781 -1.425781 C 36.976562 -1.425781 36.824219 -1.425781 36.75 -1.425781 C 36.75 -1.425781 36.75 -1.425781 36.675781 -1.425781 L 43.949219 22.574219 C 43.800781 22.648438 43.648438 22.800781 43.5 22.949219 L 9.226562 -1.574219 C 9.148438 -1.574219 9.074219 -1.5 9 -1.5 L 43.425781 23.101562 C 43.351562 23.25 43.273438 23.476562 43.273438 23.625 C 43.273438 23.773438 43.273438 23.925781 43.351562 24.074219 L 10.875 40.273438 C 10.648438 39.976562 10.273438 39.75 9.898438 39.75 L 4.648438 -0.824219 C 4.5 -0.824219 4.425781 -0.824219 4.273438 -0.898438 L 9.523438 39.75 C 9.300781 39.824219 9.074219 39.898438 8.925781 40.050781 L -0.976562 32.324219 C -0.976562 32.476562 -0.976562 32.550781 -0.976562 32.699219 L 8.773438 40.273438 C 8.625 40.5 8.550781 40.726562 8.550781 41.023438 C 8.550781 41.175781 8.550781 41.25 8.625 41.398438 L -1.050781 45.75 C -1.050781 45.824219 -1.050781 45.898438 -1.050781 45.976562 L 8.699219 41.625 C 8.925781 41.925781 9.226562 42.148438 9.675781 42.300781 L 9.675781 65.851562 C 8.925781 65.925781 8.324219 66.375 7.949219 66.976562 L -0.601562 62.476562 C -0.601562 62.550781 -0.601562 62.625 -0.601562 62.699219 L 7.875 67.199219 C 7.726562 67.5 7.726562 67.800781 7.726562 68.101562 C 7.726562 69.074219 8.25 69.824219 9.074219 70.199219 L -1.199219 98.625 C -1.125 98.773438 -1.050781 98.925781 -0.976562 99 L 9.375 70.273438 C 9.523438 70.351562 9.75 70.351562 9.976562 70.351562 C 11.175781 70.351562 12.226562 69.375 12.226562 68.101562 C 12.226562 67.726562 12.074219 67.273438 11.925781 66.976562 L 36.675781 50.476562 C 36.976562 50.851562 37.425781 51.074219 37.875 51.148438 C 38.773438 51.148438 39.449219 50.476562 39.449219 49.574219 C 39.449219 48.898438 39 48.300781 38.398438 48.074219 L 44.398438 25.050781 C 44.476562 25.050781 44.476562 25.050781 44.550781 25.050781 C 45.226562 25.050781 45.75 24.523438 45.75 23.851562 C 45.675781 23.023438 45.148438 22.5 44.476562 22.5 Z M 9.148438 69.675781 C 8.550781 69.375 8.175781 68.773438 8.175781 68.101562 C 8.175781 68.773438 8.625 69.375 9.148438 69.675781 Z M 9.898438 69.824219 C 9.75 69.824219 9.601562 69.824219 9.449219 69.75 L 9.449219 69.675781 C 9.601562 69.75 9.75 69.75 9.898438 69.824219 C 10.875 69.75 11.625 69 11.625 68.101562 C 11.625 69.074219 10.875 69.824219 9.898438 69.824219 Z M 11.699219 66.675781 C 11.324219 66.148438 10.726562 65.851562 10.050781 65.773438 L 10.050781 42.300781 C 10.5 42.226562 10.875 41.925781 11.023438 41.476562 L 36.300781 49.050781 C 36.300781 49.199219 36.226562 49.273438 36.226562 49.425781 C 36.226562 49.726562 36.300781 49.949219 36.449219 50.175781 Z M 36.976562 50.101562 C 37.199219 50.324219 37.425781 50.476562 37.800781 50.476562 C 37.5 50.476562 37.199219 50.324219 36.976562 50.101562 Z M 37.949219 48.300781 C 37.425781 48.300781 37.050781 48.523438 36.824219 48.898438 C 36.976562 48.523438 37.425781 48.226562 37.949219 48.300781 Z M 38.925781 49.425781 C 38.925781 48.976562 38.625 48.523438 38.25 48.375 C 38.625 48.523438 39 48.976562 38.925781 49.425781 Z M 38.101562 47.851562 C 38.023438 47.851562 37.949219 47.851562 37.800781 47.851562 C 37.125 47.851562 36.601562 48.226562 36.375 48.75 L 11.101562 41.175781 C 11.101562 41.101562 11.101562 41.101562 11.101562 41.023438 C 11.101562 40.875 11.101562 40.726562 11.023438 40.574219 L 43.5 24.375 C 43.648438 24.601562 43.800781 24.75 44.023438 24.824219 Z M 38.101562 47.851562 "
           id="path6" /></g></g></defs><g
     inkscape:label="Layer 1"
     inkscape:groupmode="layer"
     id="layer1" /><g
     inkscape:groupmode="layer"
     inkscape:label="Printing Marks"
     id="printing-marks"
     sodipodi:insensitive="true"
     style="display:none"><g
       id="CropMarks"
       inkscape:label="CropMarks"><path
         style="fill:none;stroke:#000000;stroke-width:0.25"
         id="cropTL1"
         d="m 0,-3.175 v -10" /><path
         style="fill:none;stroke:#000000;stroke-width:0.25"
         id="cropTL2"
         d="m -3.175,0 h -10" /><path
         style="fill:none;stroke:#000000;stroke-width:0.25"
         id="cropTR1"
         d="m 85,-3.175 v -10" /><path
         style="fill:none;stroke:#000000;stroke-width:0.25"
         id="cropTR2"
         d="m 88.175,0 h 10" /><path
         style="fill:none;stroke:#000000;stroke-width:0.25"
         id="cropBL1"
         d="m 0,58.175 v 10" /><path
         style="fill:none;stroke:#000000;stroke-width:0.25"
         id="cropBL2"
         d="m -3.175,55 h -10" /><path
         style="fill:none;stroke:#000000;stroke-width:0.25"
         id="cropBR1"
         d="m 85,58.175 v 10" /><path
         style="fill:none;stroke:#000000;stroke-width:0.25"
         id="cropBR2"
         d="m 88.175,55 h 10" /></g></g><g
     id="g12"
     style="display:inline;mix-blend-mode:normal"
     transform="matrix(0.43010753,0,0,-0.43010572,0,52.277747)">&#10;&#10;<g
   id="g107"
   transform="matrix(1.1953807,0,0,-1.1953858,-19.306056,127.3588)"><g
     id="g108"
     transform="matrix(0.8857626,0,0,1,11.288083,0)"><path
       fill-rule="nonzero"
       fill="#3b3b3b"
       fill-opacity="1"
       d="M 2.6711521e-6,0.03711022 H 197.625 V 116.66211 H 2.6711521e-6 Z m 0,0"
       id="path7" /><g
       clip-path="url(#clip-2)"
       id="g19"
       style="display:inline;mix-blend-mode:normal;fill:#e8e8e8;fill-opacity:0.29151291"><path
         fill-rule="nonzero"
         fill="#e8e8e8"
         fill-opacity="1"
         d="m 117.67578,119.25 5.92578,-22.949219 c 0.0742,0 0.14844,0 0.29688,0 0.67578,0 1.27734,-0.375 1.5,-0.976562 l 15.15234,4.574219 10.125,3.078122 c 0,0.0742 0,0.14844 0,0.22266 0,0.15234 0,0.30078 0.0742,0.44922 l -31.57422,15.75 c 0.14844,0 0.22266,0 0.375,0 l 31.34766,-15.59766 c 0.22656,0.375 0.60156,0.52344 0.97656,0.59766 l 1.8008,14.10156 c 0.14844,0 0.22266,0 0.375,0 L 152.25,104.39844 c 0.22656,-0.0742 0.44922,-0.14844 0.60156,-0.375 l 4.72266,3.67578 14.85156,11.55078 c 0.14844,0 0.22266,0 0.375,0 L 153,103.80078 c 0.14844,-0.22656 0.22656,-0.44922 0.22656,-0.75 0,-0.15234 0,-0.22656 -0.0781,-0.375 l 25.42578,-11.402342 c 0.22656,0.375 0.60156,0.601562 1.05078,0.601562 l 3,27.14844 c 0.0742,0 0.22656,0 0.30078,0.0781 l -3,-27.22656 c 0.22266,0 0.375,-0.148438 0.52344,-0.226562 L 200.77344,114 c 0,-0.0742 0.0781,-0.22656 0.0781,-0.30078 L 180.67578,91.5 c 0.0742,-0.148438 0.22266,-0.226562 0.22266,-0.449219 L 200.17578,96 c 0,-0.07422 0,-0.226562 0,-0.300781 L 180.97656,90.75 c 0,-0.07422 0,-0.148438 0,-0.226562 0,-0.449219 -0.22656,-0.824219 -0.52734,-1.046876 l 19.5,-30.152343 c 0,-0.148438 -0.0742,-0.222657 -0.0742,-0.375 l -19.64844,30.375 c -0.15234,-0.07422 -0.375,-0.148438 -0.60156,-0.148438 -0.0742,0 -0.0742,0 -0.14844,0 L 166.875,36.976562 c 0.60156,-0.226562 0.97656,-0.75 0.97656,-1.425781 0,-0.07422 0,-0.152343 0,-0.226562 L 198.375,29.25 c 0,-0.07422 0,-0.148438 0.0742,-0.226562 l -30.59766,6.078124 c -0.15234,-0.675781 -0.75,-1.125 -1.42578,-1.125 -0.82422,0 -1.5,0.671876 -1.5,1.5 0,0.597657 0.375,1.125 0.89844,1.347657 l -13.27344,36.824219 c -0.22656,-0.07422 -0.375,-0.07422 -0.60156,-0.07422 -1.19922,0 -2.25,0.976562 -2.25,2.25 0,0.449219 0.15234,0.824219 0.30078,1.125 L 125.17578,93.75 c -0.30078,-0.375 -0.75,-0.601562 -1.27734,-0.601562 -0.89844,0 -1.57422,0.675781 -1.57422,1.578124 0,0.671876 0.44922,1.273438 1.05078,1.5 l -6,22.949218 c -0.0742,0 -0.0742,0 -0.14844,0 -0.15234,0 -0.30078,0 -0.45312,0.0742 0.30078,0 0.60156,0 0.90234,0 z M 180.22656,90 c 0.22266,0.148438 0.29688,0.375 0.29688,0.675781 0,-0.226562 -0.14844,-0.527343 -0.29688,-0.675781 z m -14.25,-52.875 c 0.14844,0 0.22266,0.07422 0.375,0.07422 0.0742,0 0.14844,0 0.22266,0 l 12.44922,51.527343 0.15234,0.671876 C 178.875,89.476559 178.64844,89.69922 178.5,89.925782 L 153.89844,76.949219 C 154.05078,76.648438 154.125,76.351562 154.125,75.976562 154.05078,75.074219 153.44922,74.25 152.69922,73.875 Z m -13.42578,37.273438 c 0.67578,0.300781 1.05078,0.902343 1.05078,1.578124 0,0.296876 -0.0781,0.523438 -0.22656,0.75 0.0742,-0.226562 0.14844,-0.453124 0.14844,-0.675781 0,-0.75 -0.44922,-1.351562 -1.04688,-1.574219 z m 1.27344,2.777343 24.60156,12.972657 c -0.0742,0.152343 -0.0742,0.300781 -0.0742,0.527343 0,0.148438 0,0.222657 0.0742,0.375 L 153,102.44922 c -0.22656,-0.30078 -0.52344,-0.52344 -0.82422,-0.59766 V 78.226562 c 0.67578,0 1.27344,-0.453124 1.64844,-1.050781 z M 151.875,74.25 c 0.14844,0 0.30078,0 0.44922,0.07422 v 0.07422 c -0.22266,-0.07422 -0.375,-0.07422 -0.44922,-0.148438 -0.52344,0.07422 -0.97656,0.226562 -1.27344,0.523438 0.29688,-0.296876 0.75,-0.523438 1.27344,-0.523438 z m -1.80078,3.148438 c 0.375,0.527343 0.97656,0.828124 1.65234,0.902343 v 23.550779 c -0.45312,0.0742 -0.82812,0.375 -1.05078,0.75 l -19.57422,-5.925779 -5.625,-1.726562 c 0,-0.07422 0,-0.222657 0,-0.300781 0,-0.296876 -0.0781,-0.523438 -0.22656,-0.75 z m -25.34766,16.652343 c -0.22656,-0.226562 -0.52734,-0.449219 -0.82812,-0.449219 0.375,0 0.67578,0.148438 0.82812,0.449219 z M 123.75,95.773438 h 0.0742 c 0.44922,0 0.82422,-0.222657 1.05078,-0.597657 -0.14844,0.375 -0.60156,0.675781 -1.05078,0.597657 z m -0.97656,-1.125 c 0,0.453124 0.30078,0.902343 0.67578,1.050781 -0.375,-0.148438 -0.75,-0.597657 -0.67578,-1.050781 z m 0,0"
         id="path19"
         style="fill:#e8e8e8;fill-opacity:0.29151291" /></g><g
       clip-path="url(#clip-3)"
       id="g20"
       style="display:inline;mix-blend-mode:normal;fill:#e8e8e8;fill-opacity:0.291513"
       transform="translate(3.4858854)"><path
         fill-rule="nonzero"
         fill="#e8e8e8"
         fill-opacity="1"
         d="m 44.476562,22.5 c -0.07812,0 -0.152343,0 -0.226562,0 L 37.050781,-1.425781 c -0.07422,0 -0.226562,0 -0.300781,0 0,0 0,0 -0.07422,0 l 7.273438,24 c -0.148438,0.07422 -0.300781,0.226562 -0.449219,0.375 L 9.226562,-1.574219 C 9.148438,-1.574219 9.074219,-1.5 9,-1.5 l 34.425781,24.601562 c -0.07422,0.148438 -0.152343,0.375 -0.152343,0.523438 0,0.148438 0,0.300781 0.07812,0.449219 L 10.875,40.273438 C 10.648438,39.976562 10.273438,39.75 9.898438,39.75 l -5.25,-40.574219 c -0.148438,0 -0.222657,0 -0.375,-0.074219 l 5.25,40.648438 c -0.222657,0.07422 -0.449219,0.148438 -0.597657,0.300781 l -9.902343,-7.726562 c 0,0.152343 0,0.226562 0,0.375 l 9.75,7.574219 C 8.625,40.5 8.550781,40.726562 8.550781,41.023438 c 0,0.152343 0,0.226562 0.074219,0.375 L -1.050781,45.75 c 0,0.07422 0,0.148438 0,0.226562 l 9.75,-4.351562 c 0.226562,0.300781 0.527343,0.523438 0.976562,0.675781 v 23.550781 c -0.75,0.07422 -1.351562,0.523438 -1.726562,1.125 l -8.550781,-4.5 c 0,0.07422 0,0.148438 0,0.222657 l 8.476562,4.5 C 7.726562,67.5 7.726562,67.800781 7.726562,68.101562 c 0,0.972657 0.523438,1.722657 1.347657,2.097657 L -1.199219,98.625 C -1.125,98.773438 -1.050781,98.925781 -0.976562,99 L 9.375,70.273438 c 0.148438,0.07812 0.375,0.07812 0.601562,0.07812 1.199219,0 2.25,-0.976562 2.25,-2.25 0,-0.375 -0.152343,-0.828124 -0.300781,-1.125 l 24.75,-16.5 c 0.300781,0.375 0.75,0.597657 1.199219,0.671876 0.898438,0 1.574219,-0.671876 1.574219,-1.574219 0,-0.675781 -0.449219,-1.273438 -1.050781,-1.5 l 6,-23.023438 c 0.07812,0 0.07812,0 0.152343,0 0.675781,0 1.199219,-0.527343 1.199219,-1.199219 C 45.675781,23.023438 45.148438,22.5 44.476562,22.5 Z M 9.148438,69.675781 C 8.550781,69.375 8.175781,68.773438 8.175781,68.101562 c 0,0.671876 0.449219,1.273438 0.972657,1.574219 z m 0.75,0.148438 c -0.148438,0 -0.296876,0 -0.449219,-0.07422 v -0.07422 C 9.601562,69.75 9.75,69.75 9.898438,69.824219 10.875,69.75 11.625,69 11.625,68.101562 c 0,0.972657 -0.75,1.722657 -1.726562,1.722657 z m 1.800781,-3.148438 c -0.375,-0.527343 -0.972657,-0.824219 -1.648438,-0.902343 V 42.300781 C 10.5,42.226562 10.875,41.925781 11.023438,41.476562 l 25.277343,7.574219 c 0,0.148438 -0.07422,0.222657 -0.07422,0.375 0,0.300781 0.07422,0.523438 0.222657,0.75 z M 36.976562,50.101562 c 0.222657,0.222657 0.449219,0.375 0.824219,0.375 -0.300781,0 -0.601562,-0.152343 -0.824219,-0.375 z m 0.972657,-1.800781 c -0.523438,0 -0.898438,0.222657 -1.125,0.597657 0.152343,-0.375 0.601562,-0.671876 1.125,-0.597657 z m 0.976562,1.125 c 0,-0.449219 -0.300781,-0.902343 -0.675781,-1.050781 0.375,0.148438 0.75,0.601562 0.675781,1.050781 z m -0.824219,-1.574219 c -0.07812,0 -0.152343,0 -0.300781,0 -0.675781,0 -1.199219,0.375 -1.425781,0.898438 L 11.101562,41.175781 c 0,-0.07422 0,-0.07422 0,-0.152343 0,-0.148438 0,-0.296876 -0.07812,-0.449219 L 43.5,24.375 c 0.148438,0.226562 0.300781,0.375 0.523438,0.449219 z m 0,0"
         id="path20"
         style="fill:#e8e8e8;fill-opacity:0.291513" /></g><path
       fill-rule="nonzero"
       fill="#f93d4e"
       fill-opacity="1"
       d="m 154.19922,75.976562 c 0,1.28125 -1.03906,2.324219 -2.32422,2.324219 -1.28516,0 -2.32422,-1.042969 -2.32422,-2.324219 0,-1.285156 1.03906,-2.328124 2.32422,-2.328124 1.28516,0 2.32422,1.042968 2.32422,2.328124 z m 0,0"
       id="path8" /><path
       fill-rule="nonzero"
       fill="#f93d4e"
       fill-opacity="1"
       d="m 168,35.699219 c 0,0.910156 -0.73828,1.652343 -1.64844,1.652343 -0.91406,0 -1.65234,-0.742187 -1.65234,-1.652343 0,-0.910157 0.73828,-1.648438 1.65234,-1.648438 0.91016,0 1.64844,0.738281 1.64844,1.648438 z m 0,0"
       id="path9" /><path
       fill-rule="nonzero"
       fill="#f93d4e"
       fill-opacity="1"
       d="m 181.05078,90.523438 c 0,0.914062 -0.73828,1.652343 -1.65234,1.652343 -0.91016,0 -1.64844,-0.738281 -1.64844,-1.652343 0,-0.910157 0.73828,-1.648438 1.64844,-1.648438 0.91406,0 1.65234,0.738281 1.65234,1.648438 z m 0,0"
       id="path10" /><path
       fill-rule="nonzero"
       fill="#f93d4e"
       fill-opacity="1"
       d="m 153.22656,103.19922 c 0,0.74609 -0.60547,1.35156 -1.35156,1.35156 -0.74609,0 -1.35156,-0.60547 -1.35156,-1.35156 0,-0.74609 0.60547,-1.34766 1.35156,-1.34766 0.74609,0 1.35156,0.60157 1.35156,1.34766 z m 0,0"
       id="path11" /><path
       fill-rule="nonzero"
       fill="#f93d4e"
       fill-opacity="1"
       d="m 125.625,94.5 c 0,1.035156 -0.83984,1.875 -1.875,1.875 -1.03516,0 -1.875,-0.839844 -1.875,-1.875 0,-1.035156 0.83984,-1.875 1.875,-1.875 1.03516,0 1.875,0.839844 1.875,1.875 z m 0,0"
       id="path12" /><path
       fill-rule="nonzero"
       fill="#f93d4e"
       fill-opacity="1"
       d="m 14.661667,40.949219 c 0,0.789062 -0.640625,1.425781 -1.425781,1.425781 -0.785156,0 -1.425781,-0.636719 -1.425781,-1.425781 0,-0.785157 0.640625,-1.425781 1.425781,-1.425781 0.785156,0 1.425781,0.640624 1.425781,1.425781 z m 0,0"
       id="path13" /><path
       fill-rule="nonzero"
       fill="#f93d4e"
       fill-opacity="1"
       d="m 15.860886,67.875 c 0,1.367188 -1.109375,2.476562 -2.476562,2.476562 -1.367188,0 -2.472658,-1.109374 -2.472658,-2.476562 0,-1.367188 1.10547,-2.476562 2.472658,-2.476562 1.367187,0 2.476562,1.109374 2.476562,2.476562 z m 0,0"
       id="path14" /><path
       fill-rule="nonzero"
       fill="#f93d4e"
       fill-opacity="1"
       d="m 43.161667,49.273438 c 0,0.996093 -0.808593,1.800781 -1.800781,1.800781 -0.992188,0 -1.800781,-0.804688 -1.800781,-1.800781 0,-0.992188 0.808593,-1.796876 1.800781,-1.796876 0.992188,0 1.800781,0.804688 1.800781,1.796876 z m 0,0"
       id="path15" /><path
       fill-rule="nonzero"
       fill="#f93d4e"
       fill-opacity="1"
       d="m 49.310105,23.699219 c 0,0.746093 -0.605469,1.351562 -1.347657,1.351562 -0.746093,0 -1.351562,-0.605469 -1.351562,-1.351562 0,-0.746094 0.605469,-1.347657 1.351562,-1.347657 0.742188,0 1.347657,0.601563 1.347657,1.347657 z m 0,0"
       id="path16"
       inkscape:label="path16" /></g><path
     fill-rule="nonzero"
     fill="#e8e8e8"
     fill-opacity="1"
     d="m 81.613281,53.269538 c -0.15625,0 -0.277344,0.05078 -0.367188,0.140625 -0.09766,0.09766 -0.136718,0.21875 -0.136718,0.367188 v 6.835937 c 0,0.128907 0.03906,0.238281 0.136718,0.328125 0.08984,0.101563 0.199219,0.140625 0.339844,0.140625 h 2.257812 c 0.507813,0 0.976563,-0.121093 1.394532,-0.359375 0.417968,-0.238281 0.746094,-0.578125 0.996094,-0.996094 0.238281,-0.417968 0.359374,-0.882812 0.359374,-1.410156 0,-0.507812 -0.121093,-0.988281 -0.339843,-1.40625 -0.21875,-0.417968 -0.527344,-0.746094 -0.917969,-0.992187 -0.386719,-0.242188 -0.8125,-0.359375 -1.292969,-0.359375 -0.386719,0 -0.746093,0.07813 -1.074219,0.238281 -0.339843,0.160156 -0.617187,0.386719 -0.847656,0.667969 v -2.6875 c 0,-0.148438 -0.04687,-0.269532 -0.148437,-0.367188 -0.09766,-0.08984 -0.21875,-0.140625 -0.359375,-0.140625 z m 26.289069,0 c -0.14844,0 -0.26953,0.05078 -0.35938,0.140625 -0.0977,0.09766 -0.13672,0.21875 -0.13672,0.355469 v 5.433594 c 0,0.359375 0.0586,0.679687 0.1875,0.957031 0.1211,0.277344 0.29688,0.496094 0.52735,0.65625 0.23047,0.160156 0.48828,0.230469 0.77734,0.230469 h 0.0195 c 0.19922,0 0.35938,-0.03906 0.48828,-0.140625 0.11719,-0.08984 0.1875,-0.207032 0.1875,-0.359375 0,-0.136719 -0.0508,-0.257813 -0.1289,-0.355469 -0.0781,-0.08984 -0.1875,-0.140625 -0.32032,-0.140625 h -0.24609 c -0.14844,0 -0.26953,-0.07813 -0.35937,-0.238281 -0.0977,-0.160156 -0.14063,-0.359375 -0.14063,-0.609375 v -5.433594 c 0,-0.136719 -0.0469,-0.257813 -0.13672,-0.359375 -0.10156,-0.08594 -0.21875,-0.136719 -0.35937,-0.136719 z m 9.63672,0 c -0.16016,0 -0.27735,0.05078 -0.36719,0.140625 -0.10156,0.09766 -0.14063,0.21875 -0.14063,0.367188 v 6.835937 c 0,0.128907 0.0391,0.238281 0.14063,0.328125 0.0898,0.101563 0.19922,0.140625 0.33594,0.140625 h 2.26171 c 0.50782,0 0.97657,-0.121093 1.39454,-0.359375 0.41796,-0.238281 0.74609,-0.578125 0.99218,-0.996094 0.24219,-0.417968 0.35938,-0.882812 0.35938,-1.410156 0,-0.507812 -0.11719,-0.988281 -0.33594,-1.40625 -0.22266,-0.417968 -0.53125,-0.746094 -0.91797,-0.992187 -0.38672,-0.242188 -0.8164,-0.359375 -1.29297,-0.359375 -0.39062,0 -0.74609,0.07813 -1.07422,0.238281 -0.33984,0.160156 -0.61718,0.386719 -0.84765,0.667969 v -2.6875 c 0,-0.148438 -0.0508,-0.269532 -0.14844,-0.367188 -0.10156,-0.08984 -0.21875,-0.140625 -0.35937,-0.140625 z m -26.765633,2.269531 c -0.339844,0 -0.648438,0.07031 -0.9375,0.199219 -0.296875,0.136719 -0.535156,0.316407 -0.734375,0.546875 v -0.191406 c 0,-0.328125 -0.171875,-0.496094 -0.5,-0.496094 -0.15625,0 -0.289063,0.05078 -0.367187,0.128906 -0.08984,0.08984 -0.128907,0.210938 -0.128907,0.367188 v 4.449219 c 0,0.171875 0.03906,0.300781 0.128907,0.378906 0.07812,0.08203 0.210937,0.121094 0.367187,0.121094 0.160156,0 0.289063,-0.03906 0.371094,-0.128907 0.07813,-0.08203 0.128906,-0.210937 0.128906,-0.371093 v -2.90625 c 0,-0.367188 0.136719,-0.664063 0.4375,-0.882813 0.289063,-0.21875 0.675781,-0.328125 1.152344,-0.328125 0.160156,0 0.378906,0.02734 0.648437,0.06641 0.05859,0.01953 0.109375,0.01953 0.148438,0.01953 0.199218,0 0.339844,-0.09766 0.398437,-0.316407 0,-0.01953 0.01172,-0.05078 0.01172,-0.101562 0,-0.15625 -0.101562,-0.285156 -0.300781,-0.394531 -0.199219,-0.101563 -0.476563,-0.160157 -0.824219,-0.160157 z m -18.601562,0.01953 c -0.515626,0 -0.984376,0.117187 -1.390626,0.359375 -0.421874,0.238281 -0.738281,0.566406 -0.96875,0.984375 -0.226562,0.417968 -0.335937,0.894531 -0.335937,1.421875 0,0.519531 0.109375,0.996093 0.347656,1.414062 0.238281,0.417969 0.566407,0.746094 0.984375,0.984375 0.417969,0.238282 0.886719,0.359375 1.414063,0.359375 0.714843,0 1.3125,-0.21875 1.792969,-0.667969 0.07812,-0.07812 0.117187,-0.167968 0.117187,-0.269531 0,-0.128906 -0.07031,-0.246093 -0.1875,-0.355469 -0.08203,-0.05859 -0.171875,-0.08984 -0.257813,-0.08984 -0.121093,0 -0.25,0.05078 -0.371093,0.140625 -0.277344,0.238281 -0.644531,0.347656 -1.09375,0.347656 -0.347657,0 -0.65625,-0.08203 -0.925781,-0.238281 -0.269532,-0.160157 -0.476563,-0.378907 -0.628907,-0.660157 -0.148437,-0.277343 -0.21875,-0.605468 -0.21875,-0.964843 0,-0.554688 0.160157,-1.015625 0.480469,-1.351563 0.316406,-0.339844 0.726562,-0.519531 1.242188,-0.519531 0.25,0 0.46875,0.05078 0.667968,0.128906 0.199219,0.08203 0.378906,0.210938 0.546875,0.390625 0.101563,0.117188 0.230469,0.179688 0.386719,0.179688 0.08203,0 0.160156,-0.02344 0.230469,-0.07031 0.140625,-0.101562 0.21875,-0.21875 0.21875,-0.371093 0,-0.09766 -0.03906,-0.175782 -0.09766,-0.257813 -0.519531,-0.597656 -1.175781,-0.894531 -1.953124,-0.894531 z m 22.851562,0 c -0.535156,0 -1.003906,0.117187 -1.421875,0.359375 -0.417969,0.238281 -0.746094,0.554687 -0.976563,0.972656 -0.238281,0.417969 -0.347656,0.898437 -0.347656,1.433594 0,0.539062 0.109375,1.007812 0.347656,1.425781 0.230469,0.417969 0.558594,0.746094 0.976563,0.984375 0.417969,0.238281 0.886719,0.347656 1.421875,0.347656 0.53125,0 0.996094,-0.109375 1.414062,-0.347656 0.417969,-0.238281 0.738282,-0.566406 0.976563,-0.984375 0.230469,-0.417969 0.347656,-0.886719 0.347656,-1.425781 0,-0.535157 -0.117187,-1.015625 -0.359375,-1.433594 -0.238281,-0.417967 -0.554687,-0.734373 -0.972656,-0.972654 -0.417969,-0.242188 -0.886719,-0.359375 -1.40625,-0.359375 z m 6.171883,0 c -0.35938,0 -0.68751,0.05859 -0.9961,0.167968 -0.320314,0.121094 -0.566408,0.289063 -0.757814,0.507813 -0.199219,0.230469 -0.289063,0.507813 -0.289063,0.828125 0,0.804688 0.636719,1.332031 1.914067,1.570312 0.48437,0.101563 0.83594,0.210938 1.04297,0.347657 0.19922,0.140625 0.30859,0.308593 0.30859,0.507812 0,0.21875 -0.10937,0.390625 -0.3164,0.507813 -0.21094,0.128906 -0.5,0.191406 -0.87891,0.191406 -0.28906,0 -0.55469,-0.05078 -0.80469,-0.152344 -0.25781,-0.09766 -0.449221,-0.226562 -0.566408,-0.367187 -0.121094,-0.117188 -0.25,-0.179688 -0.378906,-0.179688 -0.109375,0 -0.230469,0.05078 -0.347657,0.140625 -0.140624,0.09766 -0.199218,0.230469 -0.199218,0.386719 0,0.121094 0.03906,0.230469 0.128906,0.308594 0.21875,0.230469 0.535156,0.410156 0.933594,0.550781 0.398439,0.136719 0.816409,0.207031 1.277349,0.207031 0.44531,0 0.83594,-0.07031 1.15234,-0.207031 0.32031,-0.140625 0.56641,-0.339844 0.73828,-0.589844 0.15625,-0.25 0.2461,-0.527344 0.2461,-0.835937 0,-0.40625 -0.15625,-0.746094 -0.45703,-1.003907 -0.29688,-0.257812 -0.81641,-0.457031 -1.53125,-0.609374 -0.35938,-0.06641 -0.62891,-0.136719 -0.8086,-0.21875 -0.1875,-0.07813 -0.31641,-0.15625 -0.375,-0.246094 -0.0703,-0.08984 -0.10156,-0.199217 -0.10156,-0.339842 0,-0.179688 0.0898,-0.328125 0.28906,-0.429688 0.19922,-0.09766 0.44922,-0.15625 0.75781,-0.15625 0.25782,0 0.48438,0.03906 0.67579,0.09766 0.17968,0.05859 0.35937,0.167969 0.52734,0.320312 0.14062,0.128907 0.28906,0.1875 0.46875,0.1875 0.10937,0 0.19922,-0.01953 0.27734,-0.07813 0.10938,-0.08984 0.16797,-0.191406 0.16797,-0.308594 0,-0.101562 -0.0469,-0.210937 -0.1289,-0.320312 -0.19922,-0.238281 -0.47657,-0.4375 -0.81641,-0.578125 -0.33594,-0.136719 -0.72656,-0.207031 -1.15234,-0.207031 z m 11.57812,0 c -0.51953,0 -0.98437,0.128906 -1.40234,0.367187 -0.41797,0.238281 -0.7461,0.578125 -0.98828,0.996094 -0.23829,0.417969 -0.35547,0.886719 -0.35547,1.402344 0,0.519531 0.10937,0.996093 0.32812,1.414062 0.21875,0.417969 0.52735,0.746094 0.91406,0.984375 0.39844,0.25 0.82813,0.371094 1.30469,0.371094 h 2.45703 c 0.12891,0 0.23828,-0.05078 0.33985,-0.140625 0.0898,-0.08984 0.14062,-0.199219 0.14062,-0.339844 v -2.289062 c 0,-0.507813 -0.1289,-0.984375 -0.37109,-1.402344 -0.23828,-0.417969 -0.56641,-0.757813 -0.98438,-0.996094 -0.41797,-0.238281 -0.875,-0.367187 -1.38281,-0.367187 z m 13.16797,0 c -0.35938,0 -0.6875,0.05859 -0.99609,0.167968 -0.32032,0.121094 -0.56641,0.289063 -0.75782,0.507813 -0.19922,0.230469 -0.28906,0.507813 -0.28906,0.828125 0,0.804688 0.64063,1.332031 1.91406,1.570312 0.48828,0.101563 0.83594,0.210938 1.04297,0.347657 0.19922,0.140625 0.3086,0.308593 0.3086,0.507812 0,0.21875 -0.10938,0.390625 -0.31641,0.507813 -0.21094,0.128906 -0.5,0.191406 -0.87891,0.191406 -0.28515,0 -0.55468,-0.05078 -0.80468,-0.152344 -0.25782,-0.09766 -0.44922,-0.226562 -0.56641,-0.367187 -0.12109,-0.117188 -0.25,-0.179688 -0.37891,-0.179688 -0.10937,0 -0.23047,0.05078 -0.34765,0.140625 -0.14063,0.09766 -0.19922,0.230469 -0.19922,0.386719 0,0.121094 0.0391,0.230469 0.1289,0.308594 0.21875,0.230469 0.53907,0.410156 0.9375,0.550781 0.39454,0.136719 0.8125,0.207031 1.27344,0.207031 0.44531,0 0.83594,-0.07031 1.15235,-0.207031 0.32031,-0.140625 0.5664,-0.339844 0.73828,-0.589844 0.16015,-0.25 0.24609,-0.527344 0.24609,-0.835937 0,-0.40625 -0.15625,-0.746094 -0.45703,-1.003907 -0.29688,-0.257812 -0.81641,-0.457031 -1.53125,-0.609374 -0.35938,-0.06641 -0.62891,-0.136719 -0.80469,-0.21875 -0.1914,-0.07813 -0.32031,-0.15625 -0.3789,-0.246094 -0.0703,-0.08984 -0.10157,-0.199217 -0.10157,-0.339842 0,-0.179688 0.0898,-0.328125 0.28907,-0.429688 0.19921,-0.09766 0.44921,-0.15625 0.75781,-0.15625 0.25781,0 0.48828,0.03906 0.67578,0.09766 0.17969,0.05859 0.35937,0.167969 0.52734,0.320312 0.14063,0.128907 0.28907,0.1875 0.46875,0.1875 0.10938,0 0.19922,-0.01953 0.27735,-0.07813 0.10937,-0.08984 0.16797,-0.191406 0.16797,-0.308594 0,-0.101562 -0.0469,-0.210937 -0.12891,-0.320312 -0.19922,-0.238281 -0.47656,-0.4375 -0.81641,-0.578125 -0.33593,-0.136719 -0.72656,-0.207031 -1.15234,-0.207031 z m -50.507817,0.03906 c -0.08203,0 -0.140625,0.01953 -0.199218,0.03906 -0.08984,0.03906 -0.160157,0.101562 -0.210938,0.171875 -0.05859,0.07813 -0.07813,0.15625 -0.07813,0.238281 0,0.07813 0.01172,0.148437 0.05078,0.207031 l 2.238282,4.25 -0.996094,2.242188 c -0.03906,0.07813 -0.05859,0.15625 -0.05859,0.238281 0,0.179687 0.09766,0.308594 0.296875,0.386719 0.08984,0.03906 0.171875,0.05859 0.242187,0.05859 0.175782,0 0.304688,-0.09766 0.386719,-0.308594 l 3.046875,-6.847656 c 0.03906,-0.08984 0.05859,-0.167969 0.05859,-0.238282 0,-0.179687 -0.109375,-0.308594 -0.308594,-0.386718 -0.07813,-0.03125 -0.160156,-0.05078 -0.238281,-0.05078 -0.179687,0 -0.308594,0.101563 -0.390625,0.289063 l -1.601562,3.613281 -1.820313,-3.625 c -0.101563,-0.175781 -0.238281,-0.277344 -0.417969,-0.277344 z m 8.410156,0.855469 c 0.328126,0 0.628907,0.08984 0.894532,0.25 0.269531,0.160156 0.480468,0.386719 0.636718,0.667969 0.160157,0.277344 0.242188,0.59375 0.242188,0.945312 0,0.355469 -0.08203,0.675782 -0.242188,0.953125 -0.15625,0.289063 -0.367187,0.519531 -0.636718,0.679688 -0.265625,0.15625 -0.566406,0.238281 -0.894532,0.238281 -0.339843,0 -0.636718,-0.08203 -0.90625,-0.238281 -0.269531,-0.160157 -0.476562,-0.390625 -0.625,-0.679688 -0.160156,-0.277343 -0.230468,-0.597656 -0.230468,-0.953125 0,-0.351562 0.07031,-0.667968 0.230468,-0.945312 0.148438,-0.28125 0.355469,-0.507813 0.625,-0.667969 0.269532,-0.160156 0.566407,-0.25 0.90625,-0.25 z m 11.179688,0 c 0.339844,0 0.640625,0.08203 0.90625,0.238281 0.269531,0.160156 0.480469,0.390625 0.628906,0.667969 0.148438,0.289063 0.230469,0.605469 0.230469,0.964844 0,0.359375 -0.08203,0.6875 -0.230469,0.964843 -0.148437,0.28125 -0.359375,0.5 -0.628906,0.660157 -0.265625,0.15625 -0.566406,0.238281 -0.90625,0.238281 -0.335938,0 -0.644531,-0.08203 -0.914062,-0.238281 -0.269532,-0.160157 -0.476563,-0.378907 -0.625,-0.660157 -0.160157,-0.277343 -0.230469,-0.605468 -0.230469,-0.964843 0,-0.359375 0.07031,-0.675781 0.230469,-0.964844 0.148437,-0.277344 0.355468,-0.507813 0.625,-0.667969 0.269531,-0.15625 0.578124,-0.238281 0.914062,-0.238281 z m 17.750003,0 c 0.32813,0 0.62891,0.08984 0.89453,0.25 0.26953,0.160156 0.48047,0.386719 0.63672,0.667969 0.15234,0.285156 0.23047,0.605468 0.23047,0.953125 0,0.359375 -0.0781,0.675781 -0.23047,0.957031 -0.15625,0.277344 -0.36719,0.507812 -0.63672,0.667969 -0.26562,0.15625 -0.5664,0.238281 -0.89453,0.238281 -0.33984,0 -0.63672,-0.08203 -0.90625,-0.238281 -0.26953,-0.160157 -0.47656,-0.390625 -0.63672,-0.667969 C 111.07032,59.000003 111,58.683597 111,58.324222 c 0,-0.347657 0.0703,-0.667969 0.23047,-0.953125 0.16016,-0.28125 0.36719,-0.507813 0.63672,-0.667969 0.26953,-0.160156 0.56641,-0.25 0.90625,-0.25 z m 6.99609,0 c 0.32813,0 0.625,0.08984 0.89454,0.25 0.26953,0.160156 0.47656,0.386719 0.63671,0.667969 0.16016,0.277344 0.23829,0.59375 0.23829,0.945312 0,0.355469 -0.0781,0.675782 -0.23829,0.953125 -0.16015,0.289063 -0.36718,0.519531 -0.63671,0.679688 -0.26954,0.15625 -0.56641,0.238281 -0.89454,0.238281 -0.33984,0 -0.63671,-0.08203 -0.90625,-0.238281 -0.26953,-0.160157 -0.47656,-0.390625 -0.6289,-0.679688 -0.15625,-0.277343 -0.22656,-0.597656 -0.22656,-0.953125 0,-0.351562 0.0703,-0.667968 0.22656,-0.945312 0.15234,-0.28125 0.35937,-0.507813 0.6289,-0.667969 0.26954,-0.160156 0.56641,-0.25 0.90625,-0.25 z m 0,0"
     id="path17"
     style="display:inline" /></g></g></svg>
