<?xml version="1.0" encoding="UTF-8" standalone="no"?>
<!-- Created with Inkscape (http://www.inkscape.org/) -->

<svg
   width="85.0mm"
   height="55.0mm"
   viewBox="0 0 85.0 55.0"
   id="SVGRoot"
   version="1.1"
   inkscape:version="1.3 (0e150ed, 2023-07-21)"
   sodipodi:docname="dj-front-cut.svg"
   xml:space="preserve"
   inkscape:export-filename="dj-front-cut.pdf"
   inkscape:export-xdpi="96"
   inkscape:export-ydpi="96"
   xmlns:inkscape="http://www.inkscape.org/namespaces/inkscape"
   xmlns:sodipodi="http://sodipodi.sourceforge.net/DTD/sodipodi-0.dtd"
   xmlns="http://www.w3.org/2000/svg"
   xmlns:svg="http://www.w3.org/2000/svg"><sodipodi:namedview
     inkscape:document-units="mm"
     inkscape:zoom="1.355759"
     inkscape:cx="161.16434"
     inkscape:cy="81.504161"
     id="namedview1"
     pagecolor="#ffffff"
     bordercolor="#000000"
     borderopacity="0.25"
     inkscape:showpageshadow="2"
     inkscape:pageopacity="0.0"
     inkscape:pagecheckerboard="0"
     inkscape:deskcolor="#d1d1d1"
     showguides="true"
     inkscape:window-width="1440"
     inkscape:window-height="778"
     inkscape:window-x="0"
     inkscape:window-y="25"
     inkscape:window-maximized="0"
     inkscape:current-layer="g1"><sodipodi:guide
       position="0,55"
       orientation="0,321.25984"
       id="guide1"
       inkscape:locked="false" /><sodipodi:guide
       position="85,55"
       orientation="207.87402,0"
       id="guide2"
       inkscape:locked="false" /><sodipodi:guide
       position="85,0"
       orientation="0,-321.25984"
       id="guide3"
       inkscape:locked="false" /><sodipodi:guide
       position="0,0"
       orientation="-207.87402,0"
       id="guide4"
       inkscape:locked="false" /><sodipodi:guide
       position="-2.5,57.5"
       orientation="226.77165,0"
       id="guide5"
       inkscape:locked="false" /><sodipodi:guide
       position="-2.5,-2.5"
       orientation="0,340.15748"
       id="guide6"
       inkscape:locked="false" /><sodipodi:guide
       position="87.5,-2.5"
       orientation="-226.77165,0"
       id="guide7"
       inkscape:locked="false" /><sodipodi:guide
       position="87.5,57.5"
       orientation="0,-340.15748"
       id="guide8"
       inkscape:locked="false" /></sodipodi:namedview><defs
     id="defs1" /><g
     inkscape:label="Layer 1"
     inkscape:groupmode="layer"
     id="layer1" /><g
     inkscape:groupmode="layer"
     inkscape:label="Printing Marks"
     id="printing-marks"
     sodipodi:insensitive="true"><g
       id="CropMarks"
       inkscape:label="CropMarks"><path
         style="fill:none;stroke:#000000;stroke-width:0.25"
         id="cropTL1"
         d="M 0.0,-3.175 L 0.0,-13.175" /><path
         style="fill:none;stroke:#000000;stroke-width:0.25"
         id="cropTL2"
         d="M -3.175,0.0 L -13.175,0.0" /><path
         style="fill:none;stroke:#000000;stroke-width:0.25"
         id="cropTR1"
         d="M 85.0,-3.175 L 85.0,-13.175" /><path
         style="fill:none;stroke:#000000;stroke-width:0.25"
         id="cropTR2"
         d="M 88.175,0.0 L 98.175,0.0" /><path
         style="fill:none;stroke:#000000;stroke-width:0.25"
         id="cropBL1"
         d="M 0.0,58.175 L 0.0,68.175" /><path
         style="fill:none;stroke:#000000;stroke-width:0.25"
         id="cropBL2"
         d="M -3.175,55.0 L -13.175,55.0" /><path
         style="fill:none;stroke:#000000;stroke-width:0.25"
         id="cropBR1"
         d="M 85.0,58.175 L 85.0,68.175" /><path
         style="fill:none;stroke:#000000;stroke-width:0.25"
         id="cropBR2"
         d="M 88.175,55.0 L 98.175,55.0" /></g></g><g
     id="g12"
     style="display:inline;mix-blend-mode:normal"
     transform="matrix(0.43010753,0,0,-0.43010572,0,52.277747)"><path
   id="path14"
   style="fill:#e8e8e8;fill-opacity:1;fill-rule:nonzero;stroke:none;stroke-width:1.12539"
   d="m -5.8125,127.3588 h 209.25 V -12.141786 h -209.25 z"
   sodipodi:insensitive="true" />&#10;&#10;<g
   id="g1"
   transform="translate(-0.08112625,0.16537101)"><text
     xml:space="preserve"
     style="font-size:8px;line-height:1.6;letter-spacing:-0.375px;fill:#3b3b3b;fill-opacity:1;stroke-width:0.75"
     x="15.770184"
     y="-65.895187"
     id="text2"
     transform="scale(1,-1)"><tspan
       sodipodi:role="line"
       style="font-style:normal;font-variant:normal;font-weight:bold;font-stretch:normal;font-size:8px;line-height:1.6;font-family:Montserrat;-inkscape-font-specification:'Montserrat Bold';letter-spacing:-0.375px;fill:#b93c47;fill-opacity:1;stroke-width:0.75"
       x="15.770184"
       y="-65.895187"
       id="tspan9">Dalibor Janckulík</tspan></text><text
     xml:space="preserve"
     style="font-size:6px;line-height:1.6;letter-spacing:-0.24606302px;fill:#3b3b3b;fill-opacity:1;stroke-width:0.75"
     x="16.449488"
     y="-46.063133"
     id="text1"
     transform="scale(1,-1)"><tspan
       sodipodi:role="line"
       style="font-style:normal;font-variant:normal;font-weight:normal;font-stretch:normal;font-size:6px;line-height:1.6;font-family:'Open Sans';-inkscape-font-specification:'Open Sans';fill:#3b3b3b;fill-opacity:1;stroke-width:0.75;letter-spacing:-0.24606302px"
       x="16.449488"
       y="-46.063133"
       id="tspan11">+420 777 344 487</tspan><tspan
       sodipodi:role="line"
       style="font-style:normal;font-variant:normal;font-weight:normal;font-stretch:normal;font-size:6px;line-height:1.6;font-family:'Open Sans';-inkscape-font-specification:'Open Sans';fill:#3b3b3b;fill-opacity:1;stroke-width:0.75;letter-spacing:-0.24606302px"
       x="16.449488"
       y="-36.463135"
       id="tspan17">dalibor.janckulik@cybroslabs.com</tspan><tspan
       sodipodi:role="line"
       style="font-style:normal;font-variant:normal;font-weight:normal;font-stretch:normal;font-size:6px;line-height:1.6;font-family:'Open Sans';-inkscape-font-specification:'Open Sans';fill:#3b3b3b;fill-opacity:1;stroke-width:0.75;letter-spacing:-0.24606302px"
       x="16.449488"
       y="-26.863132"
       id="tspan18" /><tspan
       sodipodi:role="line"
       style="font-style:normal;font-variant:normal;font-weight:normal;font-stretch:normal;font-size:6px;line-height:1.6;font-family:'Open Sans';-inkscape-font-specification:'Open Sans';fill:#3b3b3b;fill-opacity:1;stroke-width:0.75;letter-spacing:-0.24606302px"
       x="16.449488"
       y="-17.263132"
       id="tspan19">www.cybroslabs.com</tspan></text><text
     xml:space="preserve"
     style="font-size:6px;line-height:1.6;letter-spacing:-0.24606302px;fill:#3b3b3b;fill-opacity:1;stroke-width:0.75"
     x="181.7448"
     y="-46.063133"
     id="text4"
     transform="scale(1,-1)"><tspan
       sodipodi:role="line"
       style="font-style:normal;font-variant:normal;font-weight:normal;font-stretch:normal;font-size:6px;line-height:1.6;font-family:'Open Sans';-inkscape-font-specification:'Open Sans';text-align:end;text-anchor:end;fill:#3b3b3b;fill-opacity:1;stroke-width:0.75;letter-spacing:-0.24606302px"
       x="181.7448"
       y="-46.063133"
       id="tspan4">Smíchov Business Park</tspan><tspan
       sodipodi:role="line"
       style="font-style:normal;font-variant:normal;font-weight:normal;font-stretch:normal;font-size:6px;line-height:1.6;font-family:'Open Sans';-inkscape-font-specification:'Open Sans';text-align:end;text-anchor:end;fill:#3b3b3b;fill-opacity:1;stroke-width:0.75;letter-spacing:-0.24606302px"
       x="181.7448"
       y="-36.463135"
       id="tspan8">Strakonická 3367</tspan><tspan
       sodipodi:role="line"
       style="font-style:normal;font-variant:normal;font-weight:normal;font-stretch:normal;font-size:6px;line-height:1.6;font-family:'Open Sans';-inkscape-font-specification:'Open Sans';text-align:end;text-anchor:end;fill:#3b3b3b;fill-opacity:1;stroke-width:0.75;letter-spacing:-0.24606302px"
       x="181.7448"
       y="-26.863132"
       id="tspan12">150 00 Prague 5</tspan><tspan
       sodipodi:role="line"
       style="font-style:normal;font-variant:normal;font-weight:normal;font-stretch:normal;font-size:6px;line-height:1.6;font-family:'Open Sans';-inkscape-font-specification:'Open Sans';text-align:end;text-anchor:end;fill:#3b3b3b;fill-opacity:1;stroke-width:0.75;letter-spacing:-0.24606302px"
       x="181.3698"
       y="-17.263132"
       id="tspan13">building A</tspan></text><path
     d="m 175.59842,71.051885 c -0.18964,-0.450718 -0.45622,-0.939912 -0.75578,-1.426358 -0.59912,-0.972891 -1.30818,-1.899062 -1.74515,-2.443223 -0.0357,-0.04397 -0.0934,-0.04397 -0.12642,0 -0.43698,0.544161 -1.14603,1.47308 -1.74515,2.443223 -0.29956,0.486446 -0.56614,0.97564 -0.75578,1.426358 -0.19238,0.458964 -0.29406,0.843723 -0.29406,1.132293 0,1.577513 1.2807,2.858213 2.8582,2.858213 1.57751,0 2.8582,-1.2807 2.8582,-2.858213 0,-0.28857 -0.0989,-0.673329 -0.29406,-1.132293 z m -2.1574,-4.144408 c 0.8822,1.10206 2.89118,3.776139 2.89118,5.276701 0,1.82211 -1.47582,3.297938 -3.29792,3.297938 -1.8221,0 -3.29792,-1.475828 -3.29792,-3.297938 0,-1.500562 2.00898,-4.174641 2.89118,-5.276701 0.21161,-0.263836 0.60462,-0.263836 0.81348,0 z m 3.25121,3.352903 3.22647,1.173516 c 0.28582,0.104435 0.59087,-0.107183 0.59087,-0.412242 v -7.170267 c 0,-0.184135 -0.11542,-0.349031 -0.28856,-0.412242 l -4.10867,-1.495065 v 5.403121 c 0,0.120925 -0.0989,0.219863 -0.21986,0.219863 -0.12092,0 -0.21986,-0.09894 -0.21986,-0.219863 v -5.419612 l -5.27668,1.624235 v 3.795377 c 0,0.120925 -0.0989,0.219863 -0.21986,0.219863 -0.12092,0 -0.21986,-0.09894 -0.21986,-0.219863 V 63.54358 l -3.80636,-1.385134 c -0.28857,-0.104435 -0.59087,0.109931 -0.59087,0.41499 v 7.170267 c 0,0.184135 0.11542,0.349032 0.28856,0.412243 l 3.13853,1.140536 c -0.0385,0.142911 -0.0715,0.28857 -0.0934,0.434229 l -3.19349,-1.159775 c -0.34903,-0.126421 -0.57989,-0.458963 -0.57989,-0.827233 v -7.170267 c 0,-0.610119 0.60737,-1.036102 1.17901,-0.827233 l 3.8833,1.412617 5.64495,-1.736914 c 0.0467,-0.01374 0.0934,-0.01374 0.14016,0.0027 l 4.40273,1.602248 c 0.34629,0.126421 0.57989,0.456215 0.57989,0.827233 v 7.167519 c 0,0.610119 -0.60737,1.036103 -1.17901,0.827233 l -2.8445,-1.033318 c -0.0357,-0.09344 -0.0714,-0.184135 -0.10993,-0.274828 -0.0385,-0.09069 -0.0797,-0.184134 -0.12367,-0.277576 z m -4.5374,2.14366 a 0.87945,0.87945371 0 1 0 1.7589,0 0.87945,0.87945371 0 1 0 -1.7589,0 z m 2.19862,0 a 1.31917,1.3191755 0 1 1 -2.63834,0 1.31917,1.3191755 0 1 1 2.63834,0 z"
     id="path1-6"
     style="stroke-width:0.0274828" /></g></g></svg>
