<?xml version="1.0" encoding="UTF-8" standalone="no"?>
<svg
   xmlns:dc="http://purl.org/dc/elements/1.1/"
   xmlns:cc="http://creativecommons.org/ns#"
   xmlns:rdf="http://www.w3.org/1999/02/22-rdf-syntax-ns#"
   xmlns:svg="http://www.w3.org/2000/svg"
   xmlns="http://www.w3.org/2000/svg"
   xmlns:xlink="http://www.w3.org/1999/xlink"
   id="svg7"
   xml:space="preserve"
   viewBox="0 0 1024 768"
   y="0px"
   x="0px"
   version="1.1"><metadata
     id="metadata13"><rdf:RDF><cc:Work
         rdf:about=""><dc:format>image/svg+xml</dc:format><dc:type
           rdf:resource="http://purl.org/dc/dcmitype/StillImage" /></cc:Work></rdf:RDF></metadata><defs
     id="defs11" /><g
     id="g3"
     transform="matrix(1.5,0,0,1.2,512,384)"><path
       style="fill:#f93d4e"
       d="m 152.4,-201.9 c 46.6,26 86.9,68.5 97.2,116.9 10.4,48.3 -9.3,102.5 -32.2,150.3 -22.9,47.8 -49,89.1 -85.8,121.8 -36.8,32.8 -84.2,56.8 -135.5,62.2 -51.4,5.4 -106.6,-7.9 -148.6,-38.9 -42,-31 -70.8,-79.8 -87.5,-132.2 -16.8,-52.4 -21.5,-108.6 -2.2,-153.4 19.4,-44.8 62.9,-78.2 107.3,-105 44.4,-26.7 89.6,-46.8 138.7,-52 49.1,-5.3 102,4.2 148.6,30.3 z"
       id="path" /></g><animate
     fill="freeze"
     values="M120.2,-176.8C149.6,-144.2,162.8,-100.7,175.5,-57.9C188.3,-15,200.7,27.1,195.6,70.1C190.6,113,168.2,156.8,132.7,178C97.2,199.1,48.6,197.5,4.9,190.8C-38.8,184.1,-77.6,172.1,-115.3,151.7C-153,131.3,-189.7,102.4,-205.6,64.2C-221.6,26.1,-216.8,-21.4,-204,-67.9C-191.2,-114.4,-170.2,-160,-134.9,-190.6C-99.5,-221.3,-49.8,-237.2,-2.2,-234.2C45.5,-231.2,90.9,-209.5,120.2,-176.8Z; M152.4,-201.9C199,-175.9,239.3,-133.4,249.6,-85C260,-36.7,240.3,17.5,217.4,65.3C194.5,113.1,168.4,154.4,131.6,187.1C94.8,219.9,47.4,243.9,-3.9,249.3C-55.3,254.7,-110.5,241.4,-152.5,210.4C-194.5,179.4,-223.3,130.6,-240,78.2C-256.8,25.8,-261.5,-30.4,-242.2,-75.2C-222.8,-120,-179.3,-153.4,-134.9,-180.2C-90.5,-206.9,-45.3,-227,3.8,-232.2C52.9,-237.5,105.8,-228,152.4,-201.9Z; M101.9,-120.6C144.2,-109.5,199.1,-96,223.6,-62.7C248.2,-29.4,242.5,23.8,220.4,65.3C198.2,106.8,159.7,136.8,120.2,173.1C80.7,209.4,40.4,252.2,-4.7,258.7C-49.8,265.2,-99.5,235.3,-119,192.5C-138.5,149.7,-127.8,93.8,-144.4,46.1C-161,-1.6,-205.1,-41.3,-214.9,-88C-224.7,-134.6,-200.2,-188.3,-158.7,-199.6C-117.2,-210.9,-58.6,-180,-14.4,-160.1C29.8,-140.3,59.6,-131.6,101.9,-120.6Z; M113.1,-161.5C148.6,-129.9,180.8,-99.5,181.6,-66.3C182.3,-33.1,151.5,3.1,132.4,37.1C113.2,71.2,105.7,103.2,85.6,142.9C65.4,182.7,32.7,230.4,-3.9,235.8C-40.6,241.2,-81.1,204.3,-114.7,168.9C-148.3,133.5,-175,99.5,-198.1,57.5C-221.3,15.5,-240.9,-34.6,-221,-64.4C-201.2,-94.2,-141.7,-103.7,-98.3,-132.8C-54.9,-161.8,-27.4,-210.4,5.7,-218.2C38.8,-226.1,77.6,-193.1,113.1,-161.5Z; M102,-143.7C138.9,-113.5,180.3,-92.8,196.8,-59.7C213.4,-26.7,205.1,18.6,190.6,61.5C176.1,104.4,155.4,144.8,122.5,162.7C89.7,180.5,44.9,175.8,-1.2,177.4C-47.2,179,-94.4,187,-113.8,164.8C-133.1,142.5,-124.6,90.1,-143.6,43.8C-162.6,-2.6,-209.2,-42.9,-216.4,-85.7C-223.7,-128.5,-191.5,-173.9,-148.8,-202.2C-106.2,-230.5,-53.1,-241.7,-10.3,-227.6C32.5,-213.4,65,-173.9,102,-143.7Z; M120.2,-176.8C149.6,-144.2,162.8,-100.7,175.5,-57.9C188.3,-15,200.7,27.1,195.6,70.1C190.6,113,168.2,156.8,132.7,178C97.2,199.1,48.6,197.5,4.9,190.8C-38.8,184.1,-77.6,172.1,-115.3,151.7C-153,131.3,-189.7,102.4,-205.6,64.2C-221.6,26.1,-216.8,-21.4,-204,-67.9C-191.2,-114.4,-170.2,-160,-134.9,-190.6C-99.5,-221.3,-49.8,-237.2,-2.2,-234.2C45.5,-231.2,90.9,-209.5,120.2,-176.8Z"
     keySplines="0.9 0.1 0.1 0.9;0.9 0.1 0.1 0.9;0.9 0.1 0.1 0.9;0.9 0.1 0.1 0.9;0.9 0.1 0.1 0.9"
     calcMode="spline"
     keyTimes="0; 0.2; 0.4; 0.6; 0.8; 1"
     attributeName="d"
     repeatCount="indefinite"
     dur="40s"
     attributeType="XML"
     xlink:href="#path" /><path
     id="path5"
     transform="translate(153.6 115.2) scale(0.7)"
     fill="#e8e8e8"
     d="m361.93 339.66c-1.3896 0-2.4312 0.43513-3.2129 1.2168-0.86852 0.86852-1.2168 1.9101-1.2168 3.2129v59.666c0 1.1291 0.34828 2.0856 1.2168 2.8672 0.78166 0.86851 1.7372 1.2148 2.9531 1.2148h19.715c4.4294 0 8.5124-1.0406 12.16-3.125 3.6478-2.0844 6.5123-5.0378 8.6836-8.6856 2.0844-3.6477 3.127-7.7309 3.127-12.334 0-4.4294-1.0424-8.5984-2.9531-12.246-1.9107-3.6477-4.603-6.5123-7.9902-8.6836-3.3872-2.0844-7.1222-3.127-11.291-3.127-3.3872 0-6.5128 0.69437-9.3789 2.084-2.953 1.3896-5.3852 3.3865-7.3828 5.8184v-23.449c0-1.3028-0.43422-2.3444-1.3027-3.2129-0.86852-0.78166-1.911-1.2168-3.127-1.2168zm229.38 0c-1.3028 0-2.3453 0.43513-3.127 1.2168-0.86851 0.86852-1.2168 1.911-1.2168 3.127v47.42c0 3.1267 0.52132 5.9061 1.6504 8.3379 1.0422 2.4318 2.606 4.3428 4.6035 5.7324 1.9976 1.3896 4.2567 1.998 6.7754 1.998h0.17383c1.737 0 3.1268-0.34831 4.2558-1.2168 1.0422-0.78166 1.6484-1.8242 1.6484-3.127 0-1.2159-0.4341-2.2584-1.1289-3.127-0.69479-0.78166-1.6502-1.2148-2.7793-1.2148h-2.1699c-1.3028 0-2.3453-0.69436-3.127-2.084-0.86851-1.3896-1.2168-3.1275-1.2168-5.2988v-47.42c0-1.2159-0.43318-2.2584-1.2148-3.127-0.86851-0.78166-1.911-1.2168-3.127-1.2168zm84.096 0c-1.3896 0-2.4332 0.43513-3.2148 1.2168-0.86849 0.86852-1.2148 1.9101-1.2148 3.2129v59.666c0 1.1291 0.34634 2.0856 1.2148 2.8672 0.78166 0.86851 1.7372 1.2148 2.9531 1.2148h19.715c4.4294 0 8.5124-1.0406 12.16-3.125 3.6477-2.0844 6.5142-5.0378 8.6855-8.6856 2.0844-3.6477 3.127-7.7309 3.127-12.334 0-4.4294-1.0424-8.5984-2.9531-12.246-1.9107-3.6477-4.603-6.5123-7.9902-8.6836-3.3872-2.0844-7.1221-3.127-11.291-3.127-3.3872 0-6.5148 0.69437-9.3809 2.084-2.953 1.3896-5.3833 3.3865-7.3809 5.8184v-23.449c0-1.3028-0.43618-2.3444-1.3047-3.2129-0.86852-0.78166-1.9091-1.2168-3.125-1.2168zm-233.57 19.803c-2.953 0-5.6454 0.60726-8.1641 1.7363-2.6055 1.2159-4.6888 2.7798-6.4258 4.7774v-1.6504c0-2.8661-1.4776-4.3418-4.3438-4.3418-1.3896 0-2.5181 0.4341-3.2129 1.1289-0.78166 0.78167-1.1289 1.8233-1.1289 3.2129v38.822c0 1.4765 0.34724 2.606 1.1289 3.3008 0.69481 0.69482 1.8233 1.043 3.2129 1.043s2.52-0.3492 3.2148-1.1309c0.69482-0.69481 1.1289-1.8233 1.1289-3.2129v-25.359c0-3.2135 1.2148-5.8197 3.8203-7.7305 2.5187-1.9107 5.9073-2.8672 10.076-2.8672 1.3896 0 3.2996 0.26197 5.6445 0.60938 0.52111 0.1737 0.95534 0.17382 1.3027 0.17382 1.737 0 2.9535-0.86856 3.4746-2.7793 0-0.1737 0.0859-0.43488 0.0859-0.86913 0-1.3896-0.86843-2.5192-2.6055-3.4746-1.737-0.86851-4.1692-1.3887-7.209-1.3887zm-162.3 0.17383c-4.5162 0-8.5992 1.0425-12.16 3.127-3.6478 2.0844-6.4262 4.9499-8.4238 8.5977s-2.9531 7.8168-2.9531 12.42c0 4.5163 0.95465 8.6843 3.0391 12.332 2.0844 3.6478 4.9519 6.5152 8.5996 8.5996 3.6478 2.0844 7.7289 3.125 12.332 3.125 6.2533 0 11.464-1.91 15.633-5.8184 0.69481-0.69482 1.043-1.4772 1.043-2.3457 0-1.1291-0.60817-2.1696-1.6504-3.125-0.69482-0.52111-1.4762-0.78322-2.2578-0.78322-1.0422 0-2.1707 0.43515-3.2129 1.2168-2.4318 2.0844-5.6464 3.0391-9.5547 3.0391-3.0398 0-5.7312-0.69436-8.0762-2.084s-4.1699-3.3006-5.4726-5.7324c-1.3028-2.4318-1.9102-5.2972-1.9102-8.4238 0-4.8637 1.3887-8.8595 4.168-11.812 2.7792-2.953 6.3412-4.5156 10.857-4.5156 2.1713 0 4.0814 0.4341 5.8184 1.1289 1.737 0.69479 3.3009 1.8234 4.7773 3.3867 0.86852 1.0422 1.9971 1.5644 3.3867 1.5644 0.69481 0 1.3901-0.17512 1.998-0.60938 1.2159-0.86851 1.9102-1.9101 1.9102-3.2129 0-0.86852-0.34608-1.563-0.86719-2.2578-4.5162-5.2111-10.249-7.8164-17.023-7.8164zm199.41 0c-4.69 0-8.7722 1.0425-12.42 3.127-3.6478 2.0844-6.5141 4.862-8.5117 8.5098-2.0844 3.6478-3.0391 7.8178-3.0391 12.508 0 4.69 0.95462 8.7722 3.0391 12.42 1.9976 3.6477 4.864 6.5132 8.5117 8.5976 3.6478 2.0844 7.73 3.0391 12.42 3.0391 4.6031 0 8.6843-0.95462 12.332-3.0391 3.6478-2.0844 6.4273-4.9499 8.5117-8.5976 1.9976-3.6478 3.041-7.73 3.041-12.42s-1.0425-8.86-3.127-12.508c-2.0844-3.6478-4.864-6.4253-8.5117-8.5098-3.6478-2.0844-7.7298-3.127-12.246-3.127zm53.828 0c-3.1266 0-5.9932 0.5212-8.6855 1.4766-2.7792 1.0422-4.9495 2.519-6.5996 4.4297-1.737 1.9976-2.5195 4.4278-2.5195 7.207 0 7.0349 5.5588 11.638 16.676 13.723 4.2557 0.86848 7.2953 1.8251 9.1192 3.041 1.737 1.2159 2.6934 2.6927 2.6934 4.4297 0 1.9107-0.95542 3.3855-2.7793 4.4277-1.8239 1.1291-4.3422 1.6504-7.6426 1.6504-2.5187 0-4.8639-0.43422-7.0352-1.3027-2.2581-0.86852-3.909-1.997-4.9512-3.2129-1.0422-1.0422-2.1717-1.5625-3.3008-1.5625-0.95537 0-1.9968 0.43318-3.0391 1.2148-1.2159 0.86851-1.7363 1.9971-1.7363 3.3867 0 1.0422 0.34723 1.9986 1.1289 2.6934 1.9107 1.9976 4.69 3.5614 8.1641 4.7774 3.4741 1.2159 7.122 1.8223 11.117 1.8223 3.9083 0 7.295-0.60634 10.074-1.8223 2.7792-1.2159 4.9493-2.9537 6.4258-5.125 1.3896-2.1713 2.1719-4.6025 2.1719-7.2949 0-3.5609-1.3886-6.5153-3.9941-8.7734s-7.1217-3.9941-13.375-5.2969c-3.1266-0.60796-5.4718-1.2154-7.0352-1.9102-1.6502-0.69481-2.7797-1.3902-3.3008-2.1719-0.60796-0.78164-0.86915-1.7372-0.86915-2.9531 0-1.5633 0.78251-2.8659 2.5195-3.7344 1.737-0.86851 3.9072-1.3906 6.5996-1.3906 2.2581 0 4.2561 0.34805 5.9062 0.86915 1.5633 0.52111 3.127 1.4766 4.6035 2.7793 1.2159 1.1291 2.5187 1.6504 4.082 1.6504 0.95537 0 1.7368-0.1742 2.4316-0.69531 0.95537-0.78167 1.4766-1.6492 1.4766-2.6914 0-0.86851-0.4341-1.8239-1.1289-2.7793-1.737-2.0844-4.1682-3.8212-7.1211-5.0371s-6.3416-1.8242-10.076-1.8242zm101.04 0c-4.5163 0-8.5983 1.1285-12.246 3.2129-3.6478 2.0844-6.5132 5.0378-8.5976 8.6856s-3.127 7.7298-3.127 12.246c0 4.5163 0.95644 8.6843 2.8672 12.332 1.9107 3.6478 4.603 6.5152 7.9902 8.5996 3.474 2.1713 7.2081 3.2129 11.377 3.2129h21.451c1.1291 0 2.0846-0.43516 2.9531-1.2168 0.78165-0.78167 1.2168-1.7372 1.2168-2.9531v-19.974c0-4.4294-1.1284-8.5983-3.2129-12.246-2.0844-3.6478-4.9518-6.6011-8.5996-8.6856-3.6478-2.0844-7.6428-3.2129-12.072-3.2129zm114.9 0c-3.1266 0-5.9932 0.5212-8.6855 1.4766-2.7792 1.0422-4.9494 2.519-6.5996 4.4297-1.737 1.9976-2.5195 4.4278-2.5195 7.207 0 7.0349 5.5588 11.638 16.676 13.723 4.2557 0.86848 7.2952 1.8251 9.1191 3.041 1.737 1.2159 2.6934 2.6927 2.6934 4.4297 0 1.9107-0.95542 3.3855-2.7793 4.4277-1.8239 1.1291-4.3422 1.6504-7.6426 1.6504-2.5187 0-4.8639-0.43422-7.0352-1.3027-2.2581-0.86852-3.909-1.997-4.9512-3.2129-1.0422-1.0422-2.1717-1.5625-3.3008-1.5625-0.95537 0-1.9968 0.43318-3.0391 1.2148-1.2159 0.86851-1.7383 1.9971-1.7383 3.3867 0 1.0422 0.34922 1.9986 1.1309 2.6934 1.9107 1.9976 4.69 3.5614 8.1641 4.7774 3.474 1.2159 7.1201 1.8223 11.115 1.8223 3.9083 0 7.2969-0.60634 10.076-1.8223 2.7792-1.2159 4.9493-2.9537 6.4258-5.125 1.3896-2.1713 2.1719-4.6025 2.1719-7.2949 0-3.5609-1.3906-6.5153-3.9961-8.7734s-7.1217-3.9941-13.375-5.2969c-3.1266-0.60796-5.4699-1.2154-7.0332-1.9102-1.6502-0.69481-2.7797-1.3902-3.3008-2.1719-0.60796-0.78164-0.86915-1.7372-0.86915-2.9531 0-1.5633 0.78251-2.8659 2.5195-3.7344 1.737-0.86851 3.9072-1.3906 6.5996-1.3906 2.2581 0 4.2561 0.34805 5.9063 0.86915 1.5633 0.52111 3.127 1.4766 4.6035 2.7793 1.2159 1.1291 2.5187 1.6504 4.082 1.6504 0.95536 0 1.7368-0.1742 2.4316-0.69531 0.95537-0.78167 1.4766-1.6492 1.4766-2.6914 0-0.86851-0.4341-1.8239-1.1289-2.7793-1.737-2.0844-4.1701-3.8212-7.123-5.0371-2.953-1.2159-6.3396-1.8242-10.074-1.8242zm-440.73 0.34765c-0.6948 0-1.2172 0.17201-1.7383 0.34571-0.78165 0.34741-1.388 0.86861-1.8223 1.4766-0.5211 0.69481-0.69531 1.3911-0.69531 2.0859 0 0.69481 0.0862 1.3031 0.43359 1.8242l19.543 37.084-8.6856 19.543c-0.3474 0.69481-0.52148 1.3892-0.52148 2.084 0 1.5633 0.86843 2.6919 2.6055 3.3867 0.78168 0.34741 1.476 0.52148 2.084 0.52148 1.5633 0 2.6919-0.86948 3.3867-2.6934l26.578-59.754c0.3474-0.78166 0.51953-1.476 0.51953-2.084 0-1.5633-0.95439-2.6919-2.6914-3.3867-0.69483-0.26056-1.3892-0.4336-2.084-0.4336-1.5633 0-2.6939 0.86743-3.3887 2.5176l-13.982 31.527-15.895-31.613c-0.8685-1.5633-2.0832-2.4316-3.6465-2.4316zm73.395 7.4688c2.8661 0 5.4714 0.78225 7.8164 2.1719s4.169 3.3865 5.5586 5.8184c1.3896 2.4318 2.084 5.2102 2.084 8.25 0 3.1266-0.69436 5.906-2.084 8.3379-1.3896 2.5187-3.2136 4.5166-5.5586 5.9063-2.345 1.3896-4.9503 2.084-7.8164 2.084-2.953 0-5.5593-0.69436-7.9043-2.084s-4.1679-3.3876-5.4707-5.9063c-1.3896-2.4318-1.998-5.2113-1.998-8.3379 0-3.0398 0.60842-5.8182 1.998-8.25 1.3028-2.4318 3.1257-4.4287 5.4707-5.8184 2.345-1.3896 4.9514-2.1719 7.9043-2.1719zm97.568 0c2.953 0 5.5574 0.69436 7.9023 2.084 2.345 1.3896 4.1699 3.3865 5.4727 5.8184 1.3028 2.5187 1.998 5.2991 1.998 8.4258 0 3.1266-0.69528 5.992-1.998 8.4238-1.3028 2.4318-3.1277 4.3428-5.4727 5.7324s-4.9494 2.084-7.9023 2.084c-2.953 0-5.6452-0.69436-7.9902-2.084s-4.1699-3.3006-5.4727-5.7324c-1.3896-2.4318-1.9961-5.2972-1.9961-8.4238s0.60646-5.9071 1.9961-8.4258c1.3028-2.4318 3.1277-4.4287 5.4727-5.8184 2.345-1.3896 5.0373-2.084 7.9902-2.084zm154.87 0c2.8661 0 5.4714 0.78225 7.8164 2.1719s4.169 3.3865 5.5586 5.8184c1.3028 2.5187 1.998 5.2981 1.998 8.3379 0 3.1266-0.69526 5.9061-1.998 8.3379-1.3896 2.4318-3.2136 4.4287-5.5586 5.8184-2.345 1.3896-4.9503 2.084-7.8164 2.084-2.9529 0-5.5574-0.69436-7.9023-2.084-2.345-1.3896-4.169-3.3865-5.5586-5.8184-1.3896-2.4318-1.998-5.2112-1.998-8.3379 0-3.0398 0.60841-5.8192 1.998-8.3379 1.3896-2.4318 3.2136-4.4287 5.5586-5.8184 2.345-1.3896 4.9494-2.1719 7.9023-2.1719zm61.037 0c2.8661 0 5.4734 0.78225 7.8184 2.1719s4.169 3.3865 5.5586 5.8184c1.3896 2.4318 2.084 5.2102 2.084 8.25 0 3.1266-0.69437 5.906-2.084 8.3379-1.3896 2.5187-3.2136 4.5166-5.5586 5.9063-2.345 1.3896-4.9523 2.084-7.8184 2.084-2.9529 0-5.5574-0.69436-7.9023-2.084-2.345-1.3896-4.1699-3.3876-5.4727-5.9063-1.3896-2.4318-1.9961-5.2113-1.9961-8.3379 0-3.0398 0.60646-5.8182 1.9961-8.25 1.3028-2.4318 3.1277-4.4287 5.4727-5.8184 2.345-1.3896 4.9494-2.1719 7.9023-2.1719z" /></svg>