<?xml version="1.0" encoding="UTF-8" standalone="no"?>
<svg
   version="1.1"
   id="svg139"
   sodipodi:docname="svgSprite.svg"
   width="87.231003"
   height="39.814999"
   inkscape:version="1.3 (0e150ed, 2023-07-21)"
   xmlns:inkscape="http://www.inkscape.org/namespaces/inkscape"
   xmlns:sodipodi="http://sodipodi.sourceforge.net/DTD/sodipodi-0.dtd"
   xmlns:xlink="http://www.w3.org/1999/xlink"
   xmlns="http://www.w3.org/2000/svg"
   xmlns:svg="http://www.w3.org/2000/svg">
  <sodipodi:namedview
     id="namedview139"
     pagecolor="#ffffff"
     bordercolor="#000000"
     borderopacity="0.25"
     inkscape:showpageshadow="2"
     inkscape:pageopacity="0.0"
     inkscape:pagecheckerboard="0"
     inkscape:deskcolor="#d1d1d1"
     inkscape:zoom="3.1466667"
     inkscape:cx="47.192797"
     inkscape:cy="68.008475"
     inkscape:window-width="1440"
     inkscape:window-height="779"
     inkscape:window-x="0"
     inkscape:window-y="25"
     inkscape:window-maximized="1"
     inkscape:current-layer="svg139" />
  <defs
     id="defs32">
    <path
       id="bracket-left-icoa"
       d="m 449,796 c 0,0 -8.1,0.02 -11,4 -2.9,3.98 -5,18 -5,18 m 0,-44 c 0,0 2.1,14.02 5,18 2.9,3.98 11,4 11,4" />
    <linearGradient
       id="bulb-icoa"
       x1="15.878"
       y1="17.033001"
       x2="23.593"
       y2="24.747"
       gradientUnits="userSpaceOnUse">
      <stop
         stop-color="#E33019"
         id="stop1" />
      <stop
         offset=".379"
         stop-color="#DB301C"
         id="stop2" />
      <stop
         offset=".545"
         stop-color="#522950"
         id="stop3" />
      <stop
         offset=".747"
         stop-color="#261B62"
         id="stop4" />
    </linearGradient>
    <linearGradient
       id="business-icoa"
       x1="27.370001"
       y1="37.719002"
       x2="56.006001"
       y2="33.777"
       gradientUnits="userSpaceOnUse">
      <stop
         stop-color="#261B62"
         id="stop5" />
      <stop
         offset=".536"
         stop-color="#8D2840"
         id="stop6" />
      <stop
         offset="1"
         stop-color="#E63323"
         id="stop7" />
    </linearGradient>
    <linearGradient
       id="business-icob"
       x1="33.306999"
       y1="38.626999"
       x2="36.438"
       y2="35.304001"
       gradientUnits="userSpaceOnUse">
      <stop
         stop-color="#261B62"
         id="stop8" />
      <stop
         offset=".536"
         stop-color="#8D2840"
         id="stop9" />
      <stop
         offset="1"
         stop-color="#E63323"
         id="stop10" />
    </linearGradient>
    <linearGradient
       id="business-icoc"
       x1="33.306999"
       y1="35.778999"
       x2="36.438"
       y2="32.456001"
       gradientUnits="userSpaceOnUse">
      <stop
         stop-color="#261B62"
         id="stop11" />
      <stop
         offset=".536"
         stop-color="#8D2840"
         id="stop12" />
      <stop
         offset="1"
         stop-color="#E63323"
         id="stop13" />
    </linearGradient>
    <linearGradient
       id="business-icod"
       x1="33.306999"
       y1="32.93"
       x2="36.438999"
       y2="29.607"
       gradientUnits="userSpaceOnUse">
      <stop
         stop-color="#261B62"
         id="stop14" />
      <stop
         offset=".536"
         stop-color="#8D2840"
         id="stop15" />
      <stop
         offset="1"
         stop-color="#E63323"
         id="stop16" />
    </linearGradient>
    <linearGradient
       id="business-icoe"
       x1="14.687"
       y1="38.626999"
       x2="17.819"
       y2="35.304001"
       gradientUnits="userSpaceOnUse">
      <stop
         stop-color="#261B62"
         id="stop17" />
      <stop
         offset=".536"
         stop-color="#8D2840"
         id="stop18" />
      <stop
         offset="1"
         stop-color="#E63323"
         id="stop19" />
    </linearGradient>
    <linearGradient
       id="business-icof"
       x1="14.687"
       y1="35.778999"
       x2="17.819"
       y2="32.456001"
       gradientUnits="userSpaceOnUse">
      <stop
         stop-color="#261B62"
         id="stop20" />
      <stop
         offset=".536"
         stop-color="#8D2840"
         id="stop21" />
      <stop
         offset="1"
         stop-color="#E63323"
         id="stop22" />
    </linearGradient>
    <linearGradient
       id="business-icog"
       x1="14.687"
       y1="32.93"
       x2="17.82"
       y2="29.607"
       gradientUnits="userSpaceOnUse">
      <stop
         stop-color="#261B62"
         id="stop23" />
      <stop
         offset=".536"
         stop-color="#8D2840"
         id="stop24" />
      <stop
         offset="1"
         stop-color="#E63323"
         id="stop25" />
    </linearGradient>
    <path
       d="M 5.178,1.03 A 5.214,5.214 0 0 0 1.03,5.177 57.407,57.407 0 0 0 1.03,26.821 5.214,5.214 0 0 0 5.18,30.97 57.8,57.8 0 0 0 16,32 57.8,57.8 0 0 0 26.822,30.97 5.214,5.214 0 0 0 30.971,26.822 57.407,57.407 0 0 0 30.971,5.178 5.214,5.214 0 0 0 26.821,1.029 57.787,57.787 0 0 0 16,0 C 12.393,0 8.786,0.343 5.178,1.03 Z"
       id="checkbox-icoa" />
    <mask
       id="checkbox-icob"
       x="0"
       y="0"
       width="32"
       height="32"
       fill="#ffffff">
      <use
         xlink:href="#checkbox-icoa"
         id="use25" />
    </mask>
    <linearGradient
       id="el-pole-icoa"
       x1="131.935"
       y1="60.938999"
       x2="184.65401"
       y2="60.938999"
       gradientUnits="userSpaceOnUse">
      <stop
         offset=".068"
         stop-color="#261B62"
         id="stop26" />
      <stop
         offset=".223"
         stop-color="#3F1E58"
         id="stop27" />
      <stop
         offset=".555"
         stop-color="#81253F"
         id="stop28" />
      <stop
         offset="1"
         stop-color="#E13019"
         id="stop29" />
    </linearGradient>
    <linearGradient
       id="home-icoa"
       x1="27.5"
       y1="28"
       x2="56.5"
       y2="22.5"
       gradientUnits="userSpaceOnUse">
      <stop
         stop-color="#261B62"
         id="stop30" />
      <stop
         offset=".536"
         stop-color="#8D2840"
         id="stop31" />
      <stop
         offset="1"
         stop-color="#E63323"
         id="stop32" />
    </linearGradient>
    <path
       id="ico_calendar-icoa"
       d="M 0,0 H 24 V 24 H 0 Z" />
    <path
       id="ico_form_calendar-icoa"
       d="M 0,0.952 H 20 V 19.524 H 0 Z" />
    <path
       id="ico_info-icoa"
       d="M 3.998,16 C 3.998,22.628 9.374,28.002 16,28.002 22.628,28.002 28,22.628 28,16 28,9.372 22.628,4 16,4 9.374,4 3.998,9.372 3.998,16 Z M 6,16 C 6,10.476 10.478,6 16,6 21.524,6 26,10.476 26,16 26,21.522 21.524,26.002 16,26.002 10.478,26.002 6,21.522 6,16 Z m 9.958,-2.977 c 0.153,0 0.306,-0.02 0.46,-0.061 a 0.991,0.991 0 0 0 0.399,-0.207 c 0.112,-0.097 0.204,-0.222 0.276,-0.376 0.071,-0.153 0.107,-0.337 0.107,-0.552 0,-0.42 -0.128,-0.729 -0.383,-0.928 -0.256,-0.2 -0.542,-0.299 -0.86,-0.299 -0.357,0 -0.656,0.097 -0.897,0.291 -0.24,0.195 -0.36,0.507 -0.36,0.936 0,0.44 0.12,0.749 0.36,0.928 0.24,0.179 0.54,0.268 0.898,0.268 z m 1.12,8.13 v -6.995 h -2.179 v 6.994 h 2.178 z" />
    <path
       id="menu-icoa"
       d="m 15.8,12.6 c 1.06,0 1.06,2 0,2 H 1.6 a 1,1 0 0 1 0,-2 z m 0,-6 c 1.06,0 1.06,2 0,2 H 1.6 a 1,1 0 1 1 0,-2 z m 0,-6 c 1.06,0 1.06,2 0,2 H 1.6 a 1,1 0 1 1 0,-2 z" />
  </defs>
  <path
     d="m 24.462,21.6 c 0.061,-0.554 0.092,-1.17 0.092,-1.723 0,-6.8 -4.308,-12.615 -12.092,-12.615 C 5.6,7.262 0,12.554 0,19.477 c 0,6.615 4.862,12.738 12.8,12.738 5.262,0 9.354,-3.138 11.138,-6.584 l -5.753,-1.293 c -1.354,1.416 -3.231,2.093 -5.077,2.093 -2.831,0 -5.508,-1.662 -6.062,-4.862 H 24.462 Z M 7.169,16.83 c 0.923,-2.676 3.293,-4.06 5.57,-4.06 2.184,0 4.307,1.322 4.953,4.06 H 7.17 Z M 87.231,0 h -7.046 v 8.585 a 10.684,10.684 0 0 0 -5.17,-1.323 c -6.4,0 -12.184,4.923 -12.184,12.523 0,7.292 5.477,12.461 12.707,12.461 2.124,0 4.985,-0.646 7.293,-2.37 H 87.2 V 0 h 0.03 z M 75.323,25.446 c -3.046,0 -5.6,-2.554 -5.6,-5.661 0,-3.077 2.585,-5.662 5.6,-5.662 3.2,0 5.508,2.462 5.508,5.57 0.03,3.045 -2.093,5.753 -5.508,5.753 m -48.215,-7.2 c 0,6.123 5.261,10.954 10.707,10.954 1.385,0 3.139,-0.338 4.493,-1.077 v 1.046 c 0,3.323 -2.4,5.046 -4.831,5.046 -1.815,0 -3.63,-0.953 -4.492,-2.984 l -5.693,1.323 c 1.477,3.846 5.17,7.261 10.462,7.261 6.83,0 11.077,-4.707 11.077,-13.107 V 9.415 H 44.554 A 10.864,10.864 0 0 0 38.092,7.262 10.971,10.971 0 0 0 27.108,18.246 m 6.492,0 c 0,-2.461 2.03,-4.492 4.492,-4.492 2.462,0 4.493,2.03 4.493,4.492 0,2.462 -2.031,4.492 -4.493,4.492 -2.461,0 -4.492,-2 -4.492,-4.492 m 17.938,1.785 c 0,2.43 1.939,4.369 4.37,4.369 2.43,0 4.4,-1.938 4.4,-4.37 0,-2.43 -1.939,-4.368 -4.37,-4.368 -2.43,0 -4.4,1.938 -4.4,4.369"
     id="path140"
     style="fill:#ff3019;fill-opacity:1;stroke:none;stroke-opacity:1" />
</svg>
