<?xml version="1.0" encoding="UTF-8" standalone="no"?>
<svg
   id="svg650699"
   viewBox="0 0 386.2486 113.6921"
   height="113.6921"
   width="386.2486"
   version="1.1"
   sodipodi:docname="logo_colors_complete.svg"
   inkscape:version="1.3 (0e150ed, 2023-07-21)"
   xmlns:inkscape="http://www.inkscape.org/namespaces/inkscape"
   xmlns:sodipodi="http://sodipodi.sourceforge.net/DTD/sodipodi-0.dtd"
   xmlns="http://www.w3.org/2000/svg"
   xmlns:svg="http://www.w3.org/2000/svg"
   xmlns:rdf="http://www.w3.org/1999/02/22-rdf-syntax-ns#"
   xmlns:cc="http://creativecommons.org/ns#"
   xmlns:dc="http://purl.org/dc/elements/1.1/">
  <sodipodi:namedview
     id="namedview1"
     pagecolor="#ffffff"
     bordercolor="#000000"
     borderopacity="0.25"
     inkscape:showpageshadow="2"
     inkscape:pageopacity="0.0"
     inkscape:pagecheckerboard="0"
     inkscape:deskcolor="#d1d1d1"
     inkscape:zoom="1.0308611"
     inkscape:cx="174.12627"
     inkscape:cy="82.455335"
     inkscape:window-width="1312"
     inkscape:window-height="449"
     inkscape:window-x="0"
     inkscape:window-y="25"
     inkscape:window-maximized="0"
     inkscape:current-layer="svg650699" />
  <metadata
     id="metadata650705">
    <rdf:rdf>
      <cc:work
         rdf:about="">
        <dc:format>image/svg+xml</dc:format>
        <dc:type
           rdf:resource="http://purl.org/dc/dcmitype/StillImage" />
      </cc:work>
    </rdf:rdf>
  </metadata>
  <defs
     id="defs650703" />
  <linearGradient
     spreadMethod="pad"
     y2="0.30000001"
     x2="-0.1"
     y1="1.2"
     x1="0.30000001"
     id="3d_gradient2-logo-fd7545fb-4554-49a5-bff5-fa0ce7522e8d">
    <stop
       id="stop650680"
       stop-opacity="1"
       stop-color="#ffffff"
       offset="0%" />
    <stop
       id="stop650682"
       stop-opacity="1"
       stop-color="#000000"
       offset="100%" />
  </linearGradient>
  <linearGradient
     gradientTransform="rotate(-30)"
     spreadMethod="pad"
     y2="0.30000001"
     x2="-0.1"
     y1="1.2"
     x1="0.30000001"
     id="3d_gradient3-logo-fd7545fb-4554-49a5-bff5-fa0ce7522e8d">
    <stop
       id="stop650685"
       stop-opacity="1"
       stop-color="#ffffff"
       offset="0%" />
    <stop
       id="stop650687"
       stop-opacity="1"
       stop-color="#cccccc"
       offset="50%" />
    <stop
       id="stop650689"
       stop-opacity="1"
       stop-color="#000000"
       offset="100%" />
  </linearGradient>
  <g
     id="logo-group"
     transform="translate(-318.8757,-327.15395)">
    <g
       id="logo-center">
      <g
         id="slogan"
         style="font-style:normal;font-weight:400;font-size:32px;line-height:1;font-family:Karma;font-variant-ligatures:none;text-align:center;text-anchor:middle">
        <path
           id="path650707"
           style="font-style:normal;font-weight:400;font-size:32px;line-height:1;font-family:Karma;font-variant-ligatures:none;text-align:center;text-anchor:middle"
           d="m 382.0535,0 h -6.08 v -0.256 q 0,-0.768 0.448,-0.96 0.224,-0.128 0.544,-0.16 l 1.344,-0.064 v -12.672 l -1.664,-0.128 q -0.768,-0.096 -0.768,-1.376 l 4.64,-0.512 v 14.624 l 2.432,0.192 Q 383.0775,0 382.0535,0 Z m -1.76,-19.04 q -0.448,0.416 -1.152,0.416 -0.704,0 -1.152,-0.416 -0.416,-0.448 -0.416,-1.152 0,-0.704 0.416,-1.152 0.448,-0.448 1.152,-0.448 0.704,0 1.152,0.448 0.448,0.448 0.448,1.152 0,0.704 -0.448,1.152 z"
           stroke-width="0"
           stroke-linejoin="miter"
           stroke-miterlimit="2"
           fill="#3b3b3b"
           stroke="#3b3b3b"
           transform="matrix(0.91,0,0,0.91,-20.663879,434.61437)" />
        <path
           id="path650709"
           style="font-style:normal;font-weight:400;font-size:32px;line-height:1;font-family:Karma;font-variant-ligatures:none;text-align:center;text-anchor:middle"
           d="m 401.702,0 h -5.952 v -0.256 q 0,-0.768 0.448,-0.96 0.224,-0.128 0.544,-0.16 l 1.408,-0.064 v -8.288 q 0,-4.48 -3.552,-4.48 -1.312,0 -2.368,0.512 -1.056,0.512 -2.4,1.632 v 10.56 l 2.272,0.192 Q 392.23,0 391.238,0 h -6.016 v -0.256 q 0,-1.024 1.024,-1.12 l 1.376,-0.064 v -12.608 l -1.664,-0.192 q -0.768,-0.064 -0.768,-1.312 l 4.128,-0.544 0.416,2.432 h 0.096 q 2.592,-2.464 5.344,-2.464 2.144,0 3.648,1.504 1.536,1.504 1.536,4.64 v 8.48 l 2.24,0.192 Q 402.726,0 401.702,0 Z"
           stroke-width="0"
           stroke-linejoin="miter"
           stroke-miterlimit="2"
           fill="#3b3b3b"
           stroke="#3b3b3b"
           transform="matrix(0.91,0,0,0.91,-14.020879,434.61437)" />
        <path
           id="path650711"
           style="font-style:normal;font-weight:400;font-size:32px;line-height:1;font-family:Karma;font-variant-ligatures:none;text-align:center;text-anchor:middle"
           d="m 404.879,-14.176 v -0.576 q 0,-0.352 0.16,-0.544 0.16,-0.224 0.256,-0.256 0.288,-0.096 0.48,-0.096 h 1.376 v -1.184 q 0,-2.848 1.216,-4.416 1.248,-1.568 3.488,-1.568 1.12,-0.032 1.888,0.416 0.768,0.416 0.768,1.216 0,0.768 -0.416,1.152 -0.416,0.384 -1.088,0.384 -0.032,-0.8 -0.512,-1.248 -0.448,-0.448 -1.312,-0.448 -1.824,0 -1.824,3.776 v 1.92 h 3.936 q 0.128,1.472 -0.928,1.472 h -3.008 v 12.672 l 3.136,0.192 v 0.544 q 0,0.384 -0.16,0.48 Q 412.015,0 411.631,0 h -6.816 v -0.256 q 0,-0.768 0.448,-0.96 0.224,-0.128 0.544,-0.16 l 1.344,-0.064 v -12.736 z"
           stroke-width="0"
           stroke-linejoin="miter"
           stroke-miterlimit="2"
           fill="#3b3b3b"
           stroke="#3b3b3b"
           transform="matrix(0.91,0,0,0.91,-7.377879,434.61437)" />
        <path
           id="path650713"
           style="font-style:normal;font-weight:400;font-size:32px;line-height:1;font-family:Karma;font-variant-ligatures:none;text-align:center;text-anchor:middle"
           d="m 421.241,0 h -6.08 v -0.256 q 0,-0.768 0.448,-0.96 0.224,-0.128 0.544,-0.16 l 1.344,-0.064 v -12.672 l -1.664,-0.128 q -0.768,-0.096 -0.768,-1.376 l 4.64,-0.512 v 14.624 l 2.432,0.192 Q 422.265,0 421.241,0 Z m -1.76,-19.04 q -0.448,0.416 -1.152,0.416 -0.704,0 -1.152,-0.416 -0.416,-0.448 -0.416,-1.152 0,-0.704 0.416,-1.152 0.448,-0.448 1.152,-0.448 0.704,0 1.152,0.448 0.448,0.448 0.448,1.152 0,0.704 -0.448,1.152 z"
           stroke-width="0"
           stroke-linejoin="miter"
           stroke-miterlimit="2"
           fill="#3b3b3b"
           stroke="#3b3b3b"
           transform="matrix(0.91,0,0,0.91,-0.73487902,434.61437)" />
        <path
           id="path650715"
           style="font-style:normal;font-weight:400;font-size:32px;line-height:1;font-family:Karma;font-variant-ligatures:none;text-align:center;text-anchor:middle"
           d="m 440.8895,0 h -5.952 v -0.256 q 0,-0.768 0.448,-0.96 0.224,-0.128 0.544,-0.16 l 1.408,-0.064 v -8.288 q 0,-4.48 -3.552,-4.48 -1.312,0 -2.368,0.512 -1.056,0.512 -2.4,1.632 v 10.56 l 2.272,0.192 Q 431.4175,0 430.4255,0 h -6.016 v -0.256 q 0,-1.024 1.024,-1.12 l 1.376,-0.064 v -12.608 l -1.664,-0.192 q -0.768,-0.064 -0.768,-1.312 l 4.128,-0.544 0.416,2.432 h 0.096 q 2.592,-2.464 5.344,-2.464 2.144,0 3.648,1.504 1.536,1.504 1.536,4.64 v 8.48 l 2.24,0.192 Q 441.9135,0 440.8895,0 Z"
           stroke-width="0"
           stroke-linejoin="miter"
           stroke-miterlimit="2"
           fill="#3b3b3b"
           stroke="#3b3b3b"
           transform="matrix(0.91,0,0,0.91,5.908121,434.61437)" />
        <path
           id="path650717"
           style="font-style:normal;font-weight:400;font-size:32px;line-height:1;font-family:Karma;font-variant-ligatures:none;text-align:center;text-anchor:middle"
           d="m 450.1785,0 h -6.08 v -0.256 q 0,-0.768 0.448,-0.96 0.224,-0.128 0.544,-0.16 l 1.344,-0.064 v -12.672 l -1.664,-0.128 q -0.768,-0.096 -0.768,-1.376 l 4.64,-0.512 v 14.624 l 2.432,0.192 Q 451.2025,0 450.1785,0 Z m -1.76,-19.04 q -0.448,0.416 -1.152,0.416 -0.704,0 -1.152,-0.416 -0.416,-0.448 -0.416,-1.152 0,-0.704 0.416,-1.152 0.448,-0.448 1.152,-0.448 0.704,0 1.152,0.448 0.448,0.448 0.448,1.152 0,0.704 -0.448,1.152 z"
           stroke-width="0"
           stroke-linejoin="miter"
           stroke-miterlimit="2"
           fill="#3b3b3b"
           stroke="#3b3b3b"
           transform="matrix(0.91,0,0,0.91,12.551121,434.61437)" />
        <path
           id="path650719"
           style="font-style:normal;font-weight:400;font-size:32px;line-height:1;font-family:Karma;font-variant-ligatures:none;text-align:center;text-anchor:middle"
           d="m 457.091,-14.176 v 9.408 q 0,1.792 0.384,2.592 0.416,0.8 1.536,0.8 1.152,0 1.92,-0.256 0.768,-0.256 1.888,-1.152 0.576,0.16 0.576,0.96 0,0.8 -1.568,1.568 -1.536,0.768 -2.976,0.768 -2.24,0 -3.104,-1.28 -0.864,-1.28 -0.864,-3.712 v -9.696 h -2.336 q -0.096,-1.472 0.928,-1.472 h 1.408 v -3.808 L 457.091,-20 v 4.352 h 5.984 q 0.096,1.056 -0.48,1.472 z"
           stroke-width="0"
           stroke-linejoin="miter"
           stroke-miterlimit="2"
           fill="#3b3b3b"
           stroke="#3b3b3b"
           transform="matrix(0.91,0,0,0.91,19.194121,434.61437)" />
        <path
           id="path650721"
           style="font-style:normal;font-weight:400;font-size:32px;line-height:1;font-family:Karma;font-variant-ligatures:none;text-align:center;text-anchor:middle"
           d="m 477.5725,-8.416 h -10.048 q -0.032,0.32 -0.032,0.992 0,2.72 1.152,4.416 1.152,1.664 3.584,1.664 2.432,0 4.64,-1.728 0.384,0.32 0.384,0.8 0,0.896 -1.76,1.824 -1.728,0.928 -3.904,0.928 -2.976,0 -4.768,-1.952 -1.76,-1.952 -1.76,-5.952 0,-4 2.112,-6.336 2.112,-2.368 4.992,-2.368 2.88,0 4.16,1.824 1.28,1.824 1.248,4.352 z m -2.336,-1.44 q 0,-2.144 -0.832,-3.392 -0.832,-1.28 -2.432,-1.28 -1.568,0 -2.688,1.248 -1.12,1.248 -1.568,3.424 z"
           stroke-width="0"
           stroke-linejoin="miter"
           stroke-miterlimit="2"
           fill="#3b3b3b"
           stroke="#3b3b3b"
           transform="matrix(0.91,0,0,0.91,25.837121,434.61437)" />
        <path
           id="path650723"
           style="font-style:normal;font-weight:400;font-size:32px;line-height:1;font-family:Karma;font-variant-ligatures:none;text-align:center;text-anchor:middle"
           d="m 492.053,-13.76 q 2.496,-2.368 5.12,-2.368 2.624,0 4.384,1.984 1.792,1.952 1.856,5.888 0.096,3.904 -1.92,6.336 -2.016,2.4 -5.664,2.4 -1.824,0 -3.712,-0.832 v 5.696 l 2.432,0.192 q 0.128,1.312 -0.896,1.312 h -6.08 V 6.592 q 0,-0.768 0.448,-0.96 0.256,-0.096 1.888,-0.224 v -19.392 l -1.696,-0.192 q -0.736,-0.064 -0.736,-1.248 l 4.128,-0.544 z m 0.064,10.944 q 1.664,1.568 4.16,1.568 2.496,0 3.616,-1.888 1.152,-1.888 1.152,-4.704 0,-2.816 -1.152,-4.608 -1.12,-1.792 -3.488,-1.792 -1.184,0 -2.112,0.48 -0.928,0.48 -2.176,1.504 z"
           stroke-width="0"
           stroke-linejoin="miter"
           stroke-miterlimit="2"
           fill="#3b3b3b"
           stroke="#3b3b3b"
           transform="matrix(0.91,0,0,0.91,32.480121,434.61437)" />
        <path
           id="path650725"
           style="font-style:normal;font-weight:400;font-size:32px;line-height:1;font-family:Karma;font-variant-ligatures:none;text-align:center;text-anchor:middle"
           d="m 512.8475,-14.464 q -2.176,0 -3.36,1.888 -1.184,1.888 -1.184,4.832 0,2.912 1.152,4.768 1.152,1.824 3.328,1.824 2.176,-0.032 3.36,-1.856 1.184,-1.824 1.184,-4.704 0,-2.912 -1.152,-4.832 -1.12,-1.952 -3.328,-1.92 z m 0.192,-1.664 q 2.432,0 4.384,1.536 1.024,0.832 1.632,2.432 0.64,1.6 0.64,3.84 0.064,3.968 -1.856,6.4 -1.92,2.4 -5.184,2.4 -3.264,0 -4.96,-2.048 -1.696,-2.048 -1.76,-5.92 -0.032,-3.872 1.888,-6.24 1.952,-2.4 5.216,-2.4 z"
           stroke-width="0"
           stroke-linejoin="miter"
           stroke-miterlimit="2"
           fill="#3b3b3b"
           stroke="#3b3b3b"
           transform="matrix(0.91,0,0,0.91,39.123121,434.61437)" />
        <path
           id="path650727"
           style="font-style:normal;font-weight:400;font-size:32px;line-height:1;font-family:Karma;font-variant-ligatures:none;text-align:center;text-anchor:middle"
           d="m 522.2495,-11.648 q 0.032,-2.08 1.696,-3.296 1.664,-1.216 3.616,-1.184 1.984,0.032 3.264,0.704 1.28,0.64 1.248,1.92 -0.032,0.864 -0.608,1.248 -0.576,0.384 -1.248,0.32 0.032,-1.12 -0.704,-1.824 -0.704,-0.704 -2.08,-0.736 -1.376,-0.032 -2.304,0.64 -0.896,0.64 -0.928,1.664 -0.032,1.024 0.896,1.664 0.96,0.608 2.688,1.28 1.728,0.672 2.336,0.992 0.64,0.288 1.376,0.8 1.376,0.96 1.312,2.912 -0.032,1.952 -1.696,3.52 -1.664,1.536 -4.448,1.504 -1.984,-0.064 -3.488,-0.832 -1.504,-0.8 -1.504,-2.176 0.032,-0.736 0.48,-1.152 0.48,-0.448 1.152,-0.416 0.256,1.312 1.28,2.112 1.056,0.8 2.592,0.832 1.536,0 2.56,-0.704 1.024,-0.736 1.056,-1.92 0.032,-1.184 -0.736,-1.792 -0.736,-0.608 -2.144,-1.12 -1.408,-0.544 -1.984,-0.768 -0.544,-0.224 -1.376,-0.672 -0.8,-0.448 -1.248,-0.896 -1.056,-1.12 -1.056,-2.624 z"
           stroke-width="0"
           stroke-linejoin="miter"
           stroke-miterlimit="2"
           fill="#3b3b3b"
           stroke="#3b3b3b"
           transform="matrix(0.91,0,0,0.91,45.766121,434.61437)" />
        <path
           id="path650729"
           style="font-style:normal;font-weight:400;font-size:32px;line-height:1;font-family:Karma;font-variant-ligatures:none;text-align:center;text-anchor:middle"
           d="m 534.8745,-11.648 q 0.032,-2.08 1.696,-3.296 1.664,-1.216 3.616,-1.184 1.984,0.032 3.264,0.704 1.28,0.64 1.248,1.92 -0.032,0.864 -0.608,1.248 -0.576,0.384 -1.248,0.32 0.032,-1.12 -0.704,-1.824 -0.704,-0.704 -2.08,-0.736 -1.376,-0.032 -2.304,0.64 -0.896,0.64 -0.928,1.664 -0.032,1.024 0.896,1.664 0.96,0.608 2.688,1.28 1.728,0.672 2.336,0.992 0.64,0.288 1.376,0.8 1.376,0.96 1.312,2.912 -0.032,1.952 -1.696,3.52 -1.664,1.536 -4.448,1.504 -1.984,-0.064 -3.488,-0.832 -1.504,-0.8 -1.504,-2.176 0.032,-0.736 0.48,-1.152 0.48,-0.448 1.152,-0.416 0.256,1.312 1.28,2.112 1.056,0.8 2.592,0.832 1.536,0 2.56,-0.704 1.024,-0.736 1.056,-1.92 0.032,-1.184 -0.736,-1.792 -0.736,-0.608 -2.144,-1.12 -1.408,-0.544 -1.984,-0.768 -0.544,-0.224 -1.376,-0.672 -0.8,-0.448 -1.248,-0.896 -1.056,-1.12 -1.056,-2.624 z"
           stroke-width="0"
           stroke-linejoin="miter"
           stroke-miterlimit="2"
           fill="#3b3b3b"
           stroke="#3b3b3b"
           transform="matrix(0.91,0,0,0.91,52.409121,434.61437)" />
        <path
           id="path650731"
           style="font-style:normal;font-weight:400;font-size:32px;line-height:1;font-family:Karma;font-variant-ligatures:none;text-align:center;text-anchor:middle"
           d="m 553.8035,0 h -6.08 v -0.256 q 0,-0.768 0.448,-0.96 0.224,-0.128 0.544,-0.16 l 1.344,-0.064 v -12.672 l -1.664,-0.128 q -0.768,-0.096 -0.768,-1.376 l 4.64,-0.512 v 14.624 l 2.432,0.192 Q 554.8275,0 553.8035,0 Z m -1.76,-19.04 q -0.448,0.416 -1.152,0.416 -0.704,0 -1.152,-0.416 -0.416,-0.448 -0.416,-1.152 0,-0.704 0.416,-1.152 0.448,-0.448 1.152,-0.448 0.704,0 1.152,0.448 0.448,0.448 0.448,1.152 0,0.704 -0.448,1.152 z"
           stroke-width="0"
           stroke-linejoin="miter"
           stroke-miterlimit="2"
           fill="#3b3b3b"
           stroke="#3b3b3b"
           transform="matrix(0.91,0,0,0.91,59.052121,434.61437)" />
        <path
           id="path650733"
           style="font-style:normal;font-weight:400;font-size:32px;line-height:1;font-family:Karma;font-variant-ligatures:none;text-align:center;text-anchor:middle"
           d="m 560.62,-13.856 q 2.336,-2.272 4.992,-2.272 2.688,0 4.448,1.952 1.792,1.952 1.856,5.888 0.096,3.936 -1.92,6.368 -2.016,2.4 -5.664,2.4 -1.824,0 -3.712,-0.832 l -2.208,-0.832 v -19.008 l -1.664,-0.192 q -0.768,-0.064 -0.768,-1.376 l 4.64,-0.576 z m 0,11.04 q 1.728,1.568 4.16,1.568 2.464,0 3.616,-1.888 1.152,-1.888 1.152,-4.704 0,-2.816 -1.152,-4.608 -1.12,-1.792 -3.488,-1.792 -1.184,0 -2.112,0.48 -0.928,0.48 -2.176,1.504 z"
           stroke-width="0"
           stroke-linejoin="miter"
           stroke-miterlimit="2"
           fill="#3b3b3b"
           stroke="#3b3b3b"
           transform="matrix(0.91,0,0,0.91,65.695121,434.61437)" />
        <path
           id="path650735"
           style="font-style:normal;font-weight:400;font-size:32px;line-height:1;font-family:Karma;font-variant-ligatures:none;text-align:center;text-anchor:middle"
           d="m 580.8035,0 h -6.08 v -0.256 q 0,-0.768 0.448,-0.96 0.224,-0.128 0.544,-0.16 l 1.344,-0.064 v -12.672 l -1.664,-0.128 q -0.768,-0.096 -0.768,-1.376 l 4.64,-0.512 v 14.624 l 2.432,0.192 Q 581.8275,0 580.8035,0 Z m -1.76,-19.04 q -0.448,0.416 -1.152,0.416 -0.704,0 -1.152,-0.416 -0.416,-0.448 -0.416,-1.152 0,-0.704 0.416,-1.152 0.448,-0.448 1.152,-0.448 0.704,0 1.152,0.448 0.448,0.448 0.448,1.152 0,0.704 -0.448,1.152 z"
           stroke-width="0"
           stroke-linejoin="miter"
           stroke-miterlimit="2"
           fill="#3b3b3b"
           stroke="#3b3b3b"
           transform="matrix(0.91,0,0,0.91,72.338121,434.61437)" />
        <path
           id="path650737"
           style="font-style:normal;font-weight:400;font-size:32px;line-height:1;font-family:Karma;font-variant-ligatures:none;text-align:center;text-anchor:middle"
           d="m 589.988,0 h -6.016 v -0.256 q 0,-1.024 1.024,-1.12 l 1.376,-0.064 v -18.784 l -1.664,-0.16 q -0.768,-0.096 -0.768,-1.344 l 4.64,-0.608 v 20.832 l 2.272,0.192 Q 590.98,0 589.988,0 Z"
           stroke-width="0"
           stroke-linejoin="miter"
           stroke-miterlimit="2"
           fill="#3b3b3b"
           stroke="#3b3b3b"
           transform="matrix(0.91,0,0,0.91,78.981121,434.61437)" />
        <path
           id="path650739"
           style="font-style:normal;font-weight:400;font-size:32px;line-height:1;font-family:Karma;font-variant-ligatures:none;text-align:center;text-anchor:middle"
           d="m 599.241,0 h -6.08 v -0.256 q 0,-0.768 0.448,-0.96 0.224,-0.128 0.544,-0.16 l 1.344,-0.064 v -12.672 l -1.664,-0.128 q -0.768,-0.096 -0.768,-1.376 l 4.64,-0.512 v 14.624 l 2.432,0.192 Q 600.265,0 599.241,0 Z m -1.76,-19.04 q -0.448,0.416 -1.152,0.416 -0.704,0 -1.152,-0.416 -0.416,-0.448 -0.416,-1.152 0,-0.704 0.416,-1.152 0.448,-0.448 1.152,-0.448 0.704,0 1.152,0.448 0.448,0.448 0.448,1.152 0,0.704 -0.448,1.152 z"
           stroke-width="0"
           stroke-linejoin="miter"
           stroke-miterlimit="2"
           fill="#3b3b3b"
           stroke="#3b3b3b"
           transform="matrix(0.91,0,0,0.91,85.624121,434.61437)" />
        <path
           id="path650741"
           style="font-style:normal;font-weight:400;font-size:32px;line-height:1;font-family:Karma;font-variant-ligatures:none;text-align:center;text-anchor:middle"
           d="m 606.1535,-14.176 v 9.408 q 0,1.792 0.384,2.592 0.416,0.8 1.536,0.8 1.152,0 1.92,-0.256 0.768,-0.256 1.888,-1.152 0.576,0.16 0.576,0.96 0,0.8 -1.568,1.568 -1.536,0.768 -2.976,0.768 -2.24,0 -3.104,-1.28 -0.864,-1.28 -0.864,-3.712 v -9.696 h -2.336 q -0.096,-1.472 0.928,-1.472 h 1.408 v -3.808 l 2.208,-0.544 v 4.352 h 5.984 q 0.096,1.056 -0.48,1.472 z"
           stroke-width="0"
           stroke-linejoin="miter"
           stroke-miterlimit="2"
           fill="#3b3b3b"
           stroke="#3b3b3b"
           transform="matrix(0.91,0,0,0.91,92.267121,434.61437)" />
        <path
           id="path650743"
           style="font-style:normal;font-weight:400;font-size:32px;line-height:1;font-family:Karma;font-variant-ligatures:none;text-align:center;text-anchor:middle"
           d="m 620.491,0 h -6.08 v -0.256 q 0,-0.768 0.448,-0.96 0.224,-0.128 0.544,-0.16 l 1.344,-0.064 v -12.672 l -1.664,-0.128 q -0.768,-0.096 -0.768,-1.376 l 4.64,-0.512 v 14.624 l 2.432,0.192 Q 621.515,0 620.491,0 Z m -1.76,-19.04 q -0.448,0.416 -1.152,0.416 -0.704,0 -1.152,-0.416 -0.416,-0.448 -0.416,-1.152 0,-0.704 0.416,-1.152 0.448,-0.448 1.152,-0.448 0.704,0 1.152,0.448 0.448,0.448 0.448,1.152 0,0.704 -0.448,1.152 z"
           stroke-width="0"
           stroke-linejoin="miter"
           stroke-miterlimit="2"
           fill="#3b3b3b"
           stroke="#3b3b3b"
           transform="matrix(0.91,0,0,0.91,98.910121,434.61437)" />
        <path
           id="path650745"
           style="font-style:normal;font-weight:400;font-size:32px;line-height:1;font-family:Karma;font-variant-ligatures:none;text-align:center;text-anchor:middle"
           d="m 635.9475,-8.416 h -10.048 q -0.032,0.32 -0.032,0.992 0,2.72 1.152,4.416 1.152,1.664 3.584,1.664 2.432,0 4.64,-1.728 0.384,0.32 0.384,0.8 0,0.896 -1.76,1.824 -1.728,0.928 -3.904,0.928 -2.976,0 -4.768,-1.952 -1.76,-1.952 -1.76,-5.952 0,-4 2.112,-6.336 2.112,-2.368 4.992,-2.368 2.88,0 4.16,1.824 1.28,1.824 1.248,4.352 z m -2.336,-1.44 q 0,-2.144 -0.832,-3.392 -0.832,-1.28 -2.432,-1.28 -1.568,0 -2.688,1.248 -1.12,1.248 -1.568,3.424 z"
           stroke-width="0"
           stroke-linejoin="miter"
           stroke-miterlimit="2"
           fill="#3b3b3b"
           stroke="#3b3b3b"
           transform="matrix(0.91,0,0,0.91,105.55312,434.61437)" />
        <path
           id="path650747"
           style="font-style:normal;font-weight:400;font-size:32px;line-height:1;font-family:Karma;font-variant-ligatures:none;text-align:center;text-anchor:middle"
           d="m 638.2495,-11.648 q 0.032,-2.08 1.696,-3.296 1.664,-1.216 3.616,-1.184 1.984,0.032 3.264,0.704 1.28,0.64 1.248,1.92 -0.032,0.864 -0.608,1.248 -0.576,0.384 -1.248,0.32 0.032,-1.12 -0.704,-1.824 -0.704,-0.704 -2.08,-0.736 -1.376,-0.032 -2.304,0.64 -0.896,0.64 -0.928,1.664 -0.032,1.024 0.896,1.664 0.96,0.608 2.688,1.28 1.728,0.672 2.336,0.992 0.64,0.288 1.376,0.8 1.376,0.96 1.312,2.912 -0.032,1.952 -1.696,3.52 -1.664,1.536 -4.448,1.504 -1.984,-0.064 -3.488,-0.832 -1.504,-0.8 -1.504,-2.176 0.032,-0.736 0.48,-1.152 0.48,-0.448 1.152,-0.416 0.256,1.312 1.28,2.112 1.056,0.8 2.592,0.832 1.536,0 2.56,-0.704 1.024,-0.736 1.056,-1.92 0.032,-1.184 -0.736,-1.792 -0.736,-0.608 -2.144,-1.12 -1.408,-0.544 -1.984,-0.768 -0.544,-0.224 -1.376,-0.672 -0.8,-0.448 -1.248,-0.896 -1.056,-1.12 -1.056,-2.624 z"
           stroke-width="0"
           stroke-linejoin="miter"
           stroke-miterlimit="2"
           fill="#3b3b3b"
           stroke="#3b3b3b"
           transform="matrix(0.91,0,0,0.91,112.19612,434.61437)" />
      </g>
      <g
         id="title"
         style="font-style:normal;font-weight:700;font-size:72px;line-height:1;font-family:'Comfortaa Bold Alt1';font-variant-ligatures:none;text-align:center;text-anchor:middle">
        <path
           id="path650750"
           style="font-style:normal;font-weight:700;font-size:72px;line-height:1;font-family:'Comfortaa Bold Alt1';font-variant-ligatures:none;text-align:center;text-anchor:middle"
           d="m 334.22863,-33.192 c -3.74401,-4.32 -8.49601,-6.48 -14.11201,-6.48 -3.74399,0 -7.12799,0.864 -10.07999,2.592 -3.024,1.728 -5.32801,4.104 -6.98401,7.128 -1.656,3.024 -2.448,6.48 -2.448,10.296 0,3.744 0.792,7.2 2.52,10.224 1.728,3.024 4.10401,5.4 7.12801,7.128 3.024,1.728 6.40799,2.592 10.224,2.592 5.18399,0 9.504,-1.584 12.95999,-4.824 0.57601,-0.576 0.86401,-1.224 0.86401,-1.944 0,-0.936 -0.50401,-1.8 -1.368,-2.592 -0.57601,-0.432 -1.22401,-0.648 -1.872,-0.648 -0.86401,0 -1.80001,0.36 -2.66401,1.008 -2.016,1.728 -4.67999,2.52 -7.91999,2.52 -2.52001,0 -4.75201,-0.576 -6.69601,-1.728 -1.94399,-1.152 -3.45599,-2.736 -4.536,-4.752 -1.08,-2.016 -1.584,-4.392 -1.584,-6.984 0,-4.032 1.15201,-7.344 3.456,-9.792 2.304,-2.448 5.25601,-3.744 9,-3.744 1.8,0 3.38401,0.36 4.824,0.936 1.44,0.576 2.736,1.512 3.96,2.808 0.72001,0.864 1.656,1.296 2.808,1.296 0.576,0 1.15201,-0.144 1.656,-0.504 1.008,-0.72 1.584,-1.584 1.584,-2.664 0,-0.72 -0.288,-1.296 -0.71999,-1.872 z"
           stroke-width="0"
           stroke-linejoin="miter"
           stroke-miterlimit="2"
           fill="#3b3b3b"
           stroke="#3b3b3b"
           transform="matrix(0.91,0,0,0.91,45.325501,378.32507)" />
        <path
           id="path650752"
           style="font-style:normal;font-weight:700;font-size:72px;line-height:1;font-family:'Comfortaa Bold Alt1';font-variant-ligatures:none;text-align:center;text-anchor:middle"
           d="m 378.26112,-36.216 c 0,-1.296 -0.79199,-2.232 -2.23199,-2.808 -0.57601,-0.216 -1.15201,-0.36 -1.728,-0.36 -1.296,0 -2.23201,0.72 -2.808,2.088 l -11.59201,26.136 -13.176,-26.208 c -0.71999,-1.296 -1.728,-2.016 -3.024,-2.016 -0.57599,0 -1.008,0.144 -1.44,0.288 -0.64799,0.288 -1.152,0.72 -1.512,1.224 -0.432,0.576 -0.57599,1.152 -0.57599,1.728 0,0.576 0.072,1.08 0.35999,1.512 l 16.2,30.744 -7.2,16.2 c -0.28799,0.576 -0.43199,1.152 -0.43199,1.728 0,1.296 0.71999,2.232 2.15999,2.808 0.64801,0.288 1.224,0.432 1.728,0.432 1.296,0 2.23201,-0.72 2.808,-2.232 l 22.032,-49.536 c 0.288,-0.648 0.432,-1.224 0.432,-1.728 z"
           stroke-width="0"
           stroke-linejoin="miter"
           stroke-miterlimit="2"
           fill="#503b3d"
           stroke="#503b3d"
           transform="matrix(0.91,0,0,0.91,45.325501,378.32507)" />
        <path
           id="path650754"
           style="font-style:normal;font-weight:700;font-size:72px;line-height:1;font-family:'Comfortaa Bold Alt1';font-variant-ligatures:none;text-align:center;text-anchor:middle"
           d="m 421.96962,-29.88 c -1.584,-3.024 -3.81599,-5.4 -6.624,-7.2 -2.808,-1.728 -5.904,-2.592 -9.35999,-2.592 -2.80801,0 -5.40001,0.576 -7.776,1.728 -2.44801,1.152 -4.464,2.808 -6.12001,4.824 v -19.44 c 0,-1.08 -0.36,-1.944 -1.07999,-2.664 -0.72001,-0.648 -1.584,-1.008 -2.59201,-1.008 -1.152,0 -2.01599,0.36 -2.664,1.008 -0.72,0.72 -1.00799,1.584 -1.00799,2.664 v 32.832 1.296 15.336 c 0,0.936 0.28799,1.728 1.00799,2.376 0.64801,0.72 1.44,1.008 2.448,1.008 h 15.91201 0.144 0.28799 c 3.672,0 7.05601,-0.864 10.08001,-2.592 3.024,-1.728 5.39999,-4.176 7.19999,-7.2 1.728,-3.024 2.592,-6.408 2.592,-10.224 0,-3.672 -0.864,-7.128 -2.448,-10.152 z m -6.336,17.064 c -1.152,2.088 -2.664,3.744 -4.608,4.896 -1.944,1.152 -4.104,1.728 -6.48,1.728 -2.448,0 -4.60799,-0.576 -6.552,-1.728 -1.944,-1.152 -3.456,-2.808 -4.536,-4.896 -1.15199,-2.016 -1.656,-4.32 -1.656,-6.912 0,-2.52 0.50401,-4.824 1.656,-6.84 1.08,-2.016 2.592,-3.672 4.536,-4.824 1.94401,-1.152 4.104,-1.8 6.552,-1.8 2.376,0 4.536,0.648 6.48,1.8 1.944,1.152 3.456,2.808 4.608,4.824 1.152,2.016 1.728,4.32 1.728,6.84 0,2.592 -0.576,4.896 -1.728,6.912 z"
           stroke-width="0"
           stroke-linejoin="miter"
           stroke-miterlimit="2"
           fill="#653b3f"
           stroke="#653b3f"
           transform="matrix(0.91,0,0,0.91,45.325501,378.32507)" />
        <path
           id="path650756"
           style="font-style:normal;font-weight:700;font-size:72px;line-height:1;font-family:'Comfortaa Bold Alt1';font-variant-ligatures:none;text-align:center;text-anchor:middle"
           d="m 460.64262,-38.664 c -1.44,-0.72 -3.456,-1.152 -5.976,-1.152 -2.448,0 -4.68,0.504 -6.768,1.44 -2.15999,1.008 -3.888,2.304 -5.328,3.96 v -1.368 c 0,-2.376 -1.22399,-3.6 -3.6,-3.6 -1.152,0 -2.08799,0.36 -2.664,0.936 -0.648,0.648 -0.93599,1.512 -0.93599,2.664 V -3.6 c 0,1.224 0.28799,2.16 0.93599,2.736 0.57601,0.576 1.512,0.864 2.664,0.864 1.152,0 2.088,-0.288 2.66401,-0.936 0.57599,-0.576 0.93599,-1.512 0.93599,-2.664 v -21.024 c 0,-2.664 1.008,-4.824 3.16801,-6.408 2.08799,-1.584 4.896,-2.376 8.35199,-2.376 1.152,0 2.736,0.216 4.68,0.504 0.432,0.144 0.79201,0.144 1.08,0.144 1.44,0 2.44801,-0.72 2.88001,-2.304 0,-0.144 0.072,-0.36 0.072,-0.72 0,-1.152 -0.72,-2.088 -2.16,-2.88 z"
           stroke-width="0"
           stroke-linejoin="miter"
           stroke-miterlimit="2"
           fill="#7a3c41"
           stroke="#7a3c41"
           transform="matrix(0.91,0,0,0.91,45.325501,378.32507)" />
        <path
           id="path650758"
           style="font-style:normal;font-weight:700;font-size:72px;line-height:1;font-family:'Comfortaa Bold Alt1';font-variant-ligatures:none;text-align:center;text-anchor:middle"
           d="m 495.58175,-37.08 c -3.024,-1.728 -6.408,-2.592 -10.152,-2.592 -3.888,0 -7.272,0.864 -10.296,2.592 -3.024,1.728 -5.4,4.032 -7.056,7.056 -1.728,3.024 -2.52,6.48 -2.52,10.368 0,3.888 0.792,7.272 2.52,10.296 1.656,3.024 4.032,5.4 7.056,7.128 3.024,1.728 6.408,2.52 10.296,2.52 3.816,0 7.2,-0.792 10.224,-2.52 3.024,-1.728 5.328,-4.104 7.056,-7.128 1.656,-3.024 2.52,-6.408 2.52,-10.296 0,-3.888 -0.864,-7.344 -2.592,-10.368 -1.728,-3.024 -4.032,-5.328 -7.056,-7.056 z m -16.776,5.616 c 1.944,-1.152 4.176,-1.728 6.624,-1.728 2.448,0 4.608,0.576 6.552,1.728 1.944,1.152 3.456,2.808 4.536,4.824 1.08,2.088 1.656,4.392 1.656,6.984 0,2.592 -0.576,4.968 -1.656,6.984 -1.08,2.016 -2.592,3.6 -4.536,4.752 -1.944,1.152 -4.104,1.728 -6.552,1.728 -2.448,0 -4.68,-0.576 -6.624,-1.728 -1.944,-1.152 -3.456,-2.736 -4.536,-4.752 -1.152,-2.016 -1.656,-4.392 -1.656,-6.984 0,-2.592 0.504,-4.896 1.656,-6.984 1.08,-2.016 2.592,-3.672 4.536,-4.824 z"
           stroke-width="0"
           stroke-linejoin="miter"
           stroke-miterlimit="2"
           fill="#8f3c43"
           stroke="#8f3c43"
           transform="matrix(0.91,0,0,0.91,45.325501,378.32507)" />
        <path
           id="path650760"
           style="font-style:normal;font-weight:700;font-size:72px;line-height:1;font-family:'Comfortaa Bold Alt1';font-variant-ligatures:none;text-align:center;text-anchor:middle"
           d="m 538.406,-38.16 c -2.448,-1.008 -5.256,-1.512 -8.352,-1.512 -2.592,0 -4.968,0.432 -7.2,1.224 -2.304,0.864 -4.104,2.088 -5.472,3.672 -1.44,1.656 -2.088,3.672 -2.088,5.976 0,5.832 4.608,9.648 13.824,11.376 3.528,0.72 6.048,1.512 7.56,2.52 1.44,1.008 2.232,2.232 2.232,3.672 0,1.584 -0.792,2.808 -2.304,3.672 -1.512,0.936 -3.6,1.368 -6.336,1.368 -2.088,0 -4.032,-0.36 -5.832,-1.08 -1.872,-0.72 -3.24,-1.656 -4.104,-2.664 -0.864,-0.864 -1.8,-1.296 -2.736,-1.296 -0.792,0 -1.656,0.36 -2.52,1.008 -1.008,0.72 -1.44,1.656 -1.44,2.808 0,0.864 0.288,1.656 0.936,2.232 1.584,1.656 3.888,2.952 6.768,3.96 2.88,1.008 5.904,1.512 9.216,1.512 3.24,0 6.048,-0.504 8.352,-1.512 2.304,-1.008 4.104,-2.448 5.328,-4.248 1.152,-1.8 1.8,-3.816 1.8,-6.048 0,-2.952 -1.152,-5.4 -3.312,-7.272 -2.16,-1.872 -5.904,-3.312 -11.088,-4.392 -2.592,-0.504 -4.536,-1.008 -5.832,-1.584 -1.368,-0.576 -2.304,-1.152 -2.736,-1.8 -0.504,-0.648 -0.72,-1.44 -0.72,-2.448 0,-1.296 0.648,-2.376 2.088,-3.096 1.44,-0.72 3.24,-1.152 5.472,-1.152 1.872,0 3.528,0.288 4.896,0.72 1.296,0.432 2.592,1.224 3.816,2.304 1.008,0.936 2.088,1.368 3.384,1.368 0.792,0 1.44,-0.144 2.016,-0.576 0.792,-0.648 1.224,-1.368 1.224,-2.232 0,-0.72 -0.36,-1.512 -0.936,-2.304 -1.44,-1.728 -3.456,-3.168 -5.904,-4.176 z"
           stroke-width="0"
           stroke-linejoin="miter"
           stroke-miterlimit="2"
           fill="#a53c46"
           stroke="#a53c46"
           transform="matrix(0.91,0,0,0.91,45.325501,378.32507)" />
        <path
           id="path650762"
           style="font-style:normal;font-weight:700;font-size:72px;line-height:1;font-family:'Comfortaa Bold Alt1';font-variant-ligatures:none;text-align:center;text-anchor:middle"
           d="m 575.9855,-55.224 c -0.72,0.72 -1.008,1.584 -1.008,2.592 v 39.312 c 0,2.592 0.432,4.896 1.368,6.912 0.864,2.016 2.16,3.6 3.816,4.752 1.656,1.152 3.528,1.656 5.616,1.656 h 0.144 c 1.44,0 2.592,-0.288 3.528,-1.008 0.864,-0.648 1.368,-1.512 1.368,-2.592 0,-1.008 -0.36,-1.872 -0.936,-2.592 -0.576,-0.648 -1.368,-1.008 -2.304,-1.008 h -1.8 c -1.08,0 -1.944,-0.576 -2.592,-1.728 -0.72,-1.152 -1.008,-2.592 -1.008,-4.392 v -39.312 c 0,-1.008 -0.36,-1.872 -1.008,-2.592 -0.72,-0.648 -1.584,-1.008 -2.592,-1.008 -1.08,0 -1.944,0.36 -2.592,1.008 z"
           stroke-width="0"
           stroke-linejoin="miter"
           stroke-miterlimit="2"
           fill="#ba3c48"
           stroke="#ba3c48"
           transform="matrix(0.91,0,0,0.91,45.325501,378.32507)" />
        <path
           id="path650764"
           style="font-style:normal;font-weight:700;font-size:72px;line-height:1;font-family:'Comfortaa Bold Alt1';font-variant-ligatures:none;text-align:center;text-anchor:middle"
           d="m 633.62037,-19.656 c 0,-3.672 -0.93599,-7.128 -2.664,-10.152 -1.72799,-3.024 -4.10399,-5.472 -7.12799,-7.2 -3.024,-1.728 -6.336,-2.664 -10.008,-2.664 -3.74401,0 -7.12801,0.936 -10.15201,2.664 -3.024,1.728 -5.4,4.176 -7.12799,7.2 -1.72801,3.024 -2.592,6.408 -2.592,10.152 0,3.744 0.79199,7.2 2.376,10.224 1.58399,3.024 3.81599,5.4 6.624,7.128 2.88,1.8 5.976,2.664 9.43199,2.664 h 0.576 17.20801 c 0.93599,0 1.728,-0.36 2.448,-1.008 0.64799,-0.648 1.00799,-1.44 1.00799,-2.448 V -3.6 Z m -30.95999,6.912 c -1.15201,-2.016 -1.65601,-4.32 -1.65601,-6.912 0,-2.52 0.504,-4.824 1.65601,-6.912 1.15199,-2.016 2.664,-3.672 4.60799,-4.824 1.944,-1.152 4.10401,-1.8 6.55201,-1.8 2.37599,0 4.53599,0.648 6.48,1.8 1.94399,1.152 3.456,2.808 4.60799,4.824 1.08001,2.088 1.65601,4.392 1.65601,6.912 0,2.592 -0.576,4.896 -1.65601,6.912 -1.15199,2.016 -2.664,3.672 -4.60799,4.824 -1.94401,1.152 -4.10401,1.728 -6.48,1.728 -2.448,0 -4.60801,-0.576 -6.55201,-1.728 -1.94399,-1.152 -3.456,-2.808 -4.60799,-4.824 z"
           stroke-width="0"
           stroke-linejoin="miter"
           stroke-miterlimit="2"
           fill="#cf3d4a"
           stroke="#cf3d4a"
           transform="matrix(0.91,0,0,0.91,45.325501,378.32507)" />
        <path
           id="path650766"
           style="font-style:normal;font-weight:700;font-size:72px;line-height:1;font-family:'Comfortaa Bold Alt1';font-variant-ligatures:none;text-align:center;text-anchor:middle"
           d="m 681.84462,-29.88 c -1.584,-3.024 -3.81599,-5.4 -6.62399,-7.2 -2.808,-1.728 -5.904,-2.592 -9.36,-2.592 -2.808,0 -5.4,0.576 -7.77601,1.728 -2.448,1.152 -4.46399,2.808 -6.12,4.824 v -19.44 c 0,-1.08 -0.35999,-1.944 -1.07999,-2.664 -0.72001,-0.648 -1.58401,-1.008 -2.592,-1.008 -1.15201,0 -2.01601,0.36 -2.664,1.008 -0.72,0.72 -1.008,1.584 -1.008,2.664 v 32.832 1.296 15.336 c 0,0.936 0.288,1.728 1.008,2.376 0.64799,0.72 1.43999,1.008 2.448,1.008 h 15.91199 0.144 0.288 c 3.672,0 7.05601,-0.864 10.08001,-2.592 3.024,-1.728 5.39999,-4.176 7.19999,-7.2 1.728,-3.024 2.59201,-6.408 2.59201,-10.224 0,-3.672 -0.86401,-7.128 -2.44801,-10.152 z m -6.33599,17.064 c -1.15201,2.088 -2.66401,3.744 -4.60801,4.896 -1.94399,1.152 -4.104,1.728 -6.48,1.728 -2.448,0 -4.60799,-0.576 -6.552,-1.728 -1.944,-1.152 -3.45599,-2.808 -4.536,-4.896 -1.152,-2.016 -1.656,-4.32 -1.656,-6.912 0,-2.52 0.504,-4.824 1.656,-6.84 1.08001,-2.016 2.592,-3.672 4.536,-4.824 1.94401,-1.152 4.104,-1.8 6.552,-1.8 2.376,0 4.53601,0.648 6.48,1.8 1.944,1.152 3.456,2.808 4.60801,4.824 1.15199,2.016 1.72799,4.32 1.72799,6.84 0,2.592 -0.576,4.896 -1.72799,6.912 z"
           stroke-width="0"
           stroke-linejoin="miter"
           stroke-miterlimit="2"
           fill="#e43d4c"
           stroke="#e43d4c"
           transform="matrix(0.91,0,0,0.91,45.325501,378.32507)" />
        <path
           id="path650768"
           style="font-style:normal;font-weight:700;font-size:72px;line-height:1;font-family:'Comfortaa Bold Alt1';font-variant-ligatures:none;text-align:center;text-anchor:middle"
           d="m 717.42162,-38.16 c -2.448,-1.008 -5.256,-1.512 -8.352,-1.512 -2.592,0 -4.96799,0.432 -7.19999,1.224 -2.30401,0.864 -4.10401,2.088 -5.47201,3.672 -1.44,1.656 -2.088,3.672 -2.088,5.976 0,5.832 4.60801,9.648 13.82401,11.376 3.52799,0.72 6.04799,1.512 7.55999,2.52 1.44001,1.008 2.232,2.232 2.232,3.672 0,1.584 -0.79199,2.808 -2.304,3.672 -1.51199,0.936 -3.6,1.368 -6.336,1.368 -2.08799,0 -4.03199,-0.36 -5.832,-1.08 -1.87199,-0.72 -3.24,-1.656 -4.104,-2.664 -0.86399,-0.864 -1.8,-1.296 -2.736,-1.296 -0.79199,0 -1.656,0.36 -2.52,1.008 -1.00799,0.72 -1.43999,1.656 -1.43999,2.808 0,0.864 0.288,1.656 0.93599,2.232 1.58401,1.656 3.888,2.952 6.768,3.96 2.88,1.008 5.904,1.512 9.216,1.512 3.24,0 6.048,-0.504 8.352,-1.512 2.304,-1.008 4.104,-2.448 5.32801,-4.248 1.15199,-1.8 1.79999,-3.816 1.79999,-6.048 0,-2.952 -1.152,-5.4 -3.312,-7.272 -2.15999,-1.872 -5.904,-3.312 -11.08799,-4.392 -2.592,-0.504 -4.53601,-1.008 -5.832,-1.584 -1.36801,-0.576 -2.30401,-1.152 -2.736,-1.8 -0.504,-0.648 -0.72,-1.44 -0.72,-2.448 0,-1.296 0.648,-2.376 2.08799,-3.096 1.44001,-0.72 3.24,-1.152 5.472,-1.152 1.87201,0 3.528,0.288 4.89601,0.72 1.29599,0.432 2.592,1.224 3.81599,2.304 1.008,0.936 2.08801,1.368 3.384,1.368 0.792,0 1.44001,-0.144 2.01601,-0.576 0.79199,-0.648 1.22399,-1.368 1.22399,-2.232 0,-0.72 -0.36,-1.512 -0.936,-2.304 -1.44,-1.728 -3.45599,-3.168 -5.904,-4.176 z"
           stroke-width="0"
           stroke-linejoin="miter"
           stroke-miterlimit="2"
           fill="#f93d4e"
           stroke="#f93d4e"
           transform="matrix(0.91,0,0,0.91,45.325501,378.32507)" />
      </g>
    </g>
  </g>
</svg>
