<?xml version="1.0" encoding="UTF-8" standalone="no"?>
<svg
   version="1.1"
   x="0px"
   y="0px"
   viewBox="0 0 512.01733 88.684868"
   xml:space="preserve"
   id="svg1"
   sodipodi:docname="cybroslabs color.svg"
   width="512.01733"
   height="88.684868"
   inkscape:version="1.3 (0e150ed, 2023-07-21)"
   xmlns:inkscape="http://www.inkscape.org/namespaces/inkscape"
   xmlns:sodipodi="http://sodipodi.sourceforge.net/DTD/sodipodi-0.dtd"
   xmlns="http://www.w3.org/2000/svg"
   xmlns:svg="http://www.w3.org/2000/svg">&#10;   <defs
   id="defs1" />&#10;   <sodipodi:namedview
   id="namedview1"
   pagecolor="#ffffff"
   bordercolor="#000000"
   borderopacity="0.25"
   inkscape:showpageshadow="2"
   inkscape:pageopacity="0.0"
   inkscape:pagecheckerboard="0"
   inkscape:deskcolor="#d1d1d1"
   showgrid="false"
   showguides="true"
   inkscape:zoom="0.73697917"
   inkscape:cx="225.24382"
   inkscape:cy="120.76325"
   inkscape:window-width="1440"
   inkscape:window-height="779"
   inkscape:window-x="0"
   inkscape:window-y="25"
   inkscape:window-maximized="1"
   inkscape:current-layer="svg1" />&#10;&#10;<rect
   fill="#e8e8e8"
   width="512.01733"
   height="88.684868"
   id="rect1"
   x="4.2400002e-06"
   y="9.2800013e-07"
   style="stroke-width:0.268457" />&#10;&#10;&#10; &#10; <g
   id="logo-group"
   stroke-width="0"
   stroke-miterlimit="2"
   transform="matrix(1.3256,0,0,1.3256,-422.69686,-464.68924)">&#10;  <path
   id="path282557"
   style="font-variant-ligatures:none"
   d="m 349.47,371.52 c -3.407,-3.9312 -7.7314,-5.8968 -12.842,-5.8968 -3.407,0 -6.4865,0.78624 -9.1728,2.3587 -2.7518,1.5725 -4.8485,3.7346 -6.3554,6.4865 -1.507,2.7518 -2.2277,5.8968 -2.2277,9.3694 0,3.407 0.72072,6.552 2.2932,9.3038 1.57248,2.7518 3.7346,4.914 6.4865,6.4865 2.7518,1.5725 5.8313,2.3587 9.3038,2.3587 4.7174,0 8.6486,-1.4414 11.794,-4.3898 0.52416,-0.52416 0.78624,-1.1138 0.78624,-1.769 0,-0.85176 -0.45864,-1.638 -1.2449,-2.3587 -0.52416,-0.39312 -1.1138,-0.58968 -1.7035,-0.58968 -0.78624,0 -1.638,0.3276 -2.4242,0.91728 -1.8346,1.5725 -4.2588,2.2932 -7.2072,2.2932 -2.2932,0 -4.3243,-0.52416 -6.0934,-1.5725 -1.769,-1.0483 -3.145,-2.4898 -4.1278,-4.3243 -0.9828,-1.8346 -1.4414,-3.9967 -1.4414,-6.3554 0,-3.6691 1.0483,-6.683 3.145,-8.9107 2.0966,-2.2277 4.783,-3.407 8.19,-3.407 1.638,0 3.0794,0.3276 4.3898,0.85176 1.3104,0.52416 2.4898,1.3759 3.6036,2.5553 0.6552,0.78624 1.507,1.1794 2.5553,1.1794 0.52416,0 1.0483,-0.13104 1.507,-0.45864 0.91728,-0.6552 1.4414,-1.4414 1.4414,-2.4242 0,-0.6552 -0.26208,-1.1794 -0.6552,-1.7035 z"
   fill="#3b3b3b" />&#10;&#10;  <path
   id="path282559"
   style="font-variant-ligatures:none"
   d="m 389.54,368.77 c 0,-1.1794 -0.72071,-2.0311 -2.0311,-2.5553 -0.52417,-0.19656 -1.0483,-0.3276 -1.5725,-0.3276 -1.1794,0 -2.0311,0.6552 -2.5553,1.9001 l -10.549,23.784 -11.99,-23.849 c -0.65519,-1.1794 -1.5725,-1.8346 -2.7518,-1.8346 -0.52415,0 -0.91728,0.13104 -1.3104,0.26208 -0.58967,0.26208 -1.0483,0.6552 -1.3759,1.1138 -0.39312,0.52416 -0.52415,1.0483 -0.52415,1.5725 0,0.52416 0.0655,0.9828 0.32759,1.3759 l 14.742,27.977 -6.552,14.742 c -0.26207,0.52416 -0.39311,1.0483 -0.39311,1.5725 0,1.1794 0.65519,2.0311 1.9656,2.5553 0.58969,0.26208 1.1138,0.39312 1.5725,0.39312 1.1794,0 2.0311,-0.6552 2.5553,-2.0311 l 20.05,-45.08 c 0.26208,-0.58968 0.39312,-1.1138 0.39312,-1.5725 z"
   fill="#503b3d" />&#10;&#10;  <path
   id="path282561"
   style="font-variant-ligatures:none"
   d="m 429.32,374.53 c -1.4414,-2.7518 -3.4726,-4.914 -6.0278,-6.552 -2.5553,-1.5725 -5.3726,-2.3587 -8.5176,-2.3587 -2.5553,0 -4.914,0.52416 -7.0762,1.5725 -2.2277,1.0483 -4.0622,2.5553 -5.5692,4.3898 v -17.69 c 0,-0.9828 -0.3276,-1.769 -0.9828,-2.4242 -0.6552,-0.58968 -1.4414,-0.91728 -2.3587,-0.91728 -1.0483,0 -1.8346,0.3276 -2.4242,0.91728 -0.6552,0.6552 -0.91728,1.4414 -0.91728,2.4242 v 45.012 c 0,0.85176 0.26208,1.5725 0.91728,2.1622 0.58968,0.6552 1.3104,0.91728 2.2277,0.91728 h 14.873 c 3.3415,0 6.421,-0.78624 9.1728,-2.3587 2.7518,-1.57246 4.914,-3.8002 6.552,-6.552 1.5725,-2.7518 2.3587,-5.8313 2.3587,-9.3038 0,-3.3415 -0.78624,-6.4865 -2.2277,-9.2383 z m -5.7658,15.528 c -1.0483,1.9001 -2.4242,3.407 -4.1933,4.4554 -1.769,1.0483 -3.7346,1.5725 -5.8968,1.5725 -2.2277,0 -4.1933,-0.52416 -5.9623,-1.5725 -1.769,-1.04834 -3.145,-2.5553 -4.1278,-4.4554 -1.0483,-1.8346 -1.507,-3.9312 -1.507,-6.2899 0,-2.2932 0.45864,-4.3898 1.507,-6.2244 0.9828,-1.8346 2.3587,-3.3415 4.1278,-4.3898 1.769,-1.0483 3.7346,-1.638 5.9623,-1.638 2.1622,0 4.1278,0.58968 5.8968,1.638 1.769,1.04832 3.145,2.5553 4.1933,4.3898 1.0483,1.8346 1.5725,3.9312 1.5725,6.2244 0,2.3587 -0.52416,4.4554 -1.5725,6.2899 z"
   fill="#653b3f" />&#10;&#10;  <path
   id="path282563"
   style="font-variant-ligatures:none"
   d="m 464.51,366.54 c -1.3104,-0.6552 -3.145,-1.0483 -5.4382,-1.0483 -2.2277,0 -4.2588,0.45864 -6.1589,1.3104 -1.9656,0.91728 -3.5381,2.0966 -4.8485,3.6036 v -1.2449 c 0,-2.1622 -1.1138,-3.276 -3.276,-3.276 -1.0483,0 -1.9001,0.3276 -2.4242,0.85176 -0.58968,0.58968 -0.85176,1.3759 -0.85176,2.4242 v 29.287 c 0,1.1138 0.26208,1.9656 0.85176,2.4898 0.52416,0.52416 1.3759,0.78624 2.4242,0.78624 1.0483,0 1.9001,-0.26208 2.4242,-0.85176 0.52416,-0.52416 0.85176,-1.3759 0.85176,-2.4242 v -19.132 c 0,-2.4242 0.91728,-4.3898 2.8829,-5.8313 1.9001,-1.4414 4.4554,-2.1622 7.6003,-2.1622 1.0483,0 2.4898,0.19656 4.2588,0.45864 0.39312,0.13104 0.72072,0.13104 0.9828,0.13104 1.3104,0 2.2277,-0.6552 2.6208,-2.0966 0,-0.13104 0.0655,-0.3276 0.0655,-0.6552 0,-1.0483 -0.6552,-1.9001 -1.9656,-2.6208 z"
   fill="#7a3c41" />&#10;&#10;  <path
   id="path282565"
   style="font-variant-ligatures:none"
   d="m 496.3,367.98 c -2.7518,-1.5725 -5.8313,-2.3587 -9.2383,-2.3587 -3.5381,0 -6.6175,0.78624 -9.3694,2.3587 -2.7518,1.5725 -4.914,3.6691 -6.421,6.421 -1.5725,2.7518 -2.2932,5.8968 -2.2932,9.4349 0,3.5381 0.72072,6.6175 2.2932,9.3694 1.507,2.7518 3.6691,4.914 6.421,6.4865 2.7518,1.5725 5.8313,2.2932 9.3694,2.2932 3.4726,0 6.552,-0.72072 9.3038,-2.2932 2.7518,-1.57248 4.8485,-3.7346 6.421,-6.4865 1.507,-2.7518 2.2932,-5.8313 2.2932,-9.3694 0,-3.5381 -0.78624,-6.683 -2.3587,-9.4349 -1.5725,-2.7518 -3.6691,-4.8485 -6.421,-6.421 z m -15.266,5.1106 c 1.769,-1.0483 3.8002,-1.5725 6.0278,-1.5725 2.2277,0 4.1933,0.52416 5.9623,1.5725 1.769,1.04834 3.145,2.5553 4.1278,4.3898 0.9828,1.9001 1.507,3.9967 1.507,6.3554 0,2.3587 -0.52416,4.5209 -1.507,6.3554 -0.9828,1.8346 -2.3587,3.276 -4.1278,4.3243 -1.769,1.0483 -3.7346,1.5725 -5.9623,1.5725 -2.2277,0 -4.2588,-0.52416 -6.0278,-1.5725 -1.769,-1.04834 -3.145,-2.4898 -4.1278,-4.3243 -1.0483,-1.8346 -1.507,-3.9967 -1.507,-6.3554 0,-2.3587 0.45864,-4.4554 1.507,-6.3554 0.9828,-1.8346 2.3587,-3.3415 4.1278,-4.3898 z"
   fill="#8f3c43" />&#10;&#10;  <path
   id="path282567"
   style="font-variant-ligatures:none"
   d="m 535.27,367 c -2.2277,-0.91728 -4.783,-1.3759 -7.6003,-1.3759 -2.3587,0 -4.5209,0.39312 -6.552,1.1138 -2.0966,0.78624 -3.7346,1.9001 -4.9795,3.3415 -1.3104,1.507 -1.9001,3.3415 -1.9001,5.4382 0,5.3071 4.1933,8.7797 12.58,10.352 3.2105,0.6552 5.5037,1.3759 6.8796,2.2932 1.3104,0.91728 2.0311,2.0311 2.0311,3.3415 0,1.4414 -0.72072,2.5553 -2.0966,3.3415 -1.3759,0.85176 -3.276,1.2449 -5.7658,1.2449 -1.9001,0 -3.6691,-0.3276 -5.3071,-0.9828 -1.7035,-0.6552 -2.9484,-1.507 -3.7346,-2.4242 -0.78624,-0.78624 -1.638,-1.1794 -2.4898,-1.1794 -0.72072,0 -1.507,0.3276 -2.2932,0.91728 -0.91728,0.6552 -1.3104,1.507 -1.3104,2.5553 0,0.78624 0.26208,1.507 0.85176,2.0311 1.4414,1.507 3.5381,2.6863 6.1589,3.6036 2.6208,0.91728 5.3726,1.3759 8.3866,1.3759 2.9484,0 5.5037,-0.45864 7.6003,-1.3759 2.0966,-0.91728 3.7346,-2.2277 4.8485,-3.8657 1.0483,-1.638 1.638,-3.4726 1.638,-5.5037 0,-2.6863 -1.0483,-4.914 -3.0139,-6.6175 -1.9656,-1.7035 -5.3726,-3.0139 -10.09,-3.9967 -2.3587,-0.45864 -4.1278,-0.91728 -5.3071,-1.4414 -1.2449,-0.52416 -2.0966,-1.0483 -2.4898,-1.638 -0.45864,-0.58968 -0.6552,-1.3104 -0.6552,-2.2277 0,-1.1794 0.58968,-2.1622 1.9001,-2.8174 1.31042,-0.6552 2.9484,-1.0483 4.9795,-1.0483 1.7035,0 3.2105,0.26208 4.4554,0.6552 1.1794,0.39312 2.3587,1.1138 3.4726,2.0966 0.91728,0.85176 1.9001,1.2449 3.0794,1.2449 0.72072,0 1.3104,-0.13104 1.8346,-0.52416 0.72072,-0.58968 1.1138,-1.2449 1.1138,-2.0311 0,-0.6552 -0.3276,-1.3759 -0.85176,-2.0966 -1.3104,-1.5725 -3.145,-2.8829 -5.3726,-3.8002 z"
   fill="#a53c46" />&#10;&#10;  <path
   id="path282569"
   style="font-variant-ligatures:none"
   d="m 569.47,351.47 c -0.6552,0.6552 -0.91728,1.4414 -0.91728,2.3587 v 35.774 c 0,2.3587 0.39312,4.4554 1.2449,6.2899 0.78624,1.8346 1.9656,3.276 3.4726,4.3243 1.507,1.0483 3.2105,1.507 5.1106,1.507 h 0.13104 c 1.3104,0 2.3587,-0.26208 3.2105,-0.91728 0.78624,-0.58968 1.2449,-1.3759 1.2449,-2.3587 0,-0.91728 -0.3276,-1.7035 -0.85176,-2.3587 -0.52416,-0.58968 -1.2449,-0.91728 -2.0966,-0.91728 h -1.638 c -0.9828,0 -1.769,-0.52416 -2.3587,-1.5725 -0.6552,-1.0483 -0.91728,-2.3587 -0.91728,-3.9967 v -35.774 c 0,-0.91728 -0.3276,-1.7035 -0.91728,-2.3587 -0.6552,-0.58968 -1.4414,-0.91728 -2.3587,-0.91728 -0.9828,0 -1.769,0.3276 -2.3587,0.91728 z"
   fill="#ba3c48" />&#10;&#10;  <path
   id="path282571"
   style="font-variant-ligatures:none"
   d="m 621.92,383.84 c 0,-3.3415 -0.85175,-6.4865 -2.4242,-9.2383 -1.5725,-2.7518 -3.7346,-4.9795 -6.4865,-6.552 -2.7518,-1.5725 -5.7658,-2.4242 -9.1073,-2.4242 -3.407,0 -6.4865,0.85176 -9.2383,2.4242 -2.7518,1.5725 -4.914,3.8002 -6.4865,6.552 -1.5725,2.7518 -2.3587,5.8313 -2.3587,9.2383 0,3.407 0.72071,6.552 2.1622,9.3038 1.4414,2.7518 3.4726,4.914 6.0278,6.4865 2.6208,1.638 5.4382,2.4242 8.5831,2.4242 h 16.183 c 0.85175,0 1.5725,-0.3276 2.2277,-0.91728 0.58967,-0.58968 0.91727,-1.3104 0.91727,-2.2277 v -0.45864 z m -28.174,6.2899 c -1.0483,-1.8346 -1.507,-3.9312 -1.507,-6.2899 0,-2.2932 0.45864,-4.3898 1.507,-6.2899 1.0483,-1.8346 2.4242,-3.3415 4.1933,-4.3898 1.769,-1.0483 3.7346,-1.638 5.9623,-1.638 2.1622,0 4.1278,0.58968 5.8968,1.638 1.769,1.04832 3.145,2.5553 4.1933,4.3898 0.98281,1.9001 1.507,3.9967 1.507,6.2899 0,2.3587 -0.52416,4.4554 -1.507,6.2899 -1.0483,1.8346 -2.4242,3.3415 -4.1933,4.3898 -1.769,1.0483 -3.7346,1.5725 -5.8968,1.5725 -2.2277,0 -4.1933,-0.52416 -5.9623,-1.5725 -1.769,-1.04834 -3.145,-2.5553 -4.1933,-4.3898 z"
   fill="#cf3d4a" />&#10;&#10;  <path
   id="path282573"
   style="font-variant-ligatures:none"
   d="m 665.8,374.53 c -1.4414,-2.7518 -3.4726,-4.914 -6.0278,-6.552 -2.5553,-1.5725 -5.3726,-2.3587 -8.5176,-2.3587 -2.5553,0 -4.914,0.52416 -7.0762,1.5725 -2.2277,1.0483 -4.0622,2.5553 -5.5692,4.3898 v -17.69 c 0,-0.9828 -0.3276,-1.769 -0.9828,-2.4242 -0.6552,-0.58968 -1.4414,-0.91728 -2.3587,-0.91728 -1.0483,0 -1.8346,0.3276 -2.4242,0.91728 -0.6552,0.6552 -0.91728,1.4414 -0.91728,2.4242 v 45.012 c 0,0.85176 0.26208,1.5725 0.91728,2.1622 0.58968,0.6552 1.3104,0.91728 2.2277,0.91728 h 14.873 c 3.3415,0 6.421,-0.78624 9.1728,-2.3587 2.7518,-1.57246 4.914,-3.8002 6.552,-6.552 1.5725,-2.7518 2.3587,-5.8313 2.3587,-9.3038 0,-3.3415 -0.78624,-6.4865 -2.2277,-9.2383 z m -5.7658,15.528 c -1.0483,1.9001 -2.4242,3.407 -4.1933,4.4554 -1.769,1.0483 -3.7346,1.5725 -5.8968,1.5725 -2.2277,0 -4.1933,-0.52416 -5.9623,-1.5725 -1.769,-1.04834 -3.145,-2.5553 -4.1278,-4.4554 -1.0483,-1.8346 -1.507,-3.9312 -1.507,-6.2899 0,-2.2932 0.45864,-4.3898 1.507,-6.2244 0.9828,-1.8346 2.3587,-3.3415 4.1278,-4.3898 1.769,-1.0483 3.7346,-1.638 5.9623,-1.638 2.1622,0 4.1278,0.58968 5.8968,1.638 1.769,1.04832 3.145,2.5553 4.1933,4.3898 1.0483,1.8346 1.5725,3.9312 1.5725,6.2244 0,2.3587 -0.52416,4.4554 -1.5725,6.2899 z"
   fill="#e43d4c" />&#10;&#10;  <path
   id="path282575"
   style="font-variant-ligatures:none"
   d="m 698.18,367 c -2.2277,-0.91728 -4.783,-1.3759 -7.6003,-1.3759 -2.3587,0 -4.5209,0.39312 -6.552,1.1138 -2.0966,0.78624 -3.7346,1.9001 -4.9795,3.3415 -1.3104,1.507 -1.9001,3.3415 -1.9001,5.4382 0,5.3071 4.1933,8.7797 12.58,10.352 3.2105,0.6552 5.5037,1.3759 6.8796,2.2932 1.3104,0.91728 2.0311,2.0311 2.0311,3.3415 0,1.4414 -0.72072,2.5553 -2.0966,3.3415 -1.3759,0.85176 -3.276,1.2449 -5.7658,1.2449 -1.9001,0 -3.6691,-0.3276 -5.3071,-0.9828 -1.7035,-0.6552 -2.9484,-1.507 -3.7346,-2.4242 -0.78624,-0.78624 -1.638,-1.1794 -2.4898,-1.1794 -0.72072,0 -1.507,0.3276 -2.2932,0.91728 -0.91728,0.6552 -1.3104,1.507 -1.3104,2.5553 0,0.78624 0.26208,1.507 0.85176,2.0311 1.4414,1.507 3.5381,2.6863 6.1589,3.6036 2.6208,0.91728 5.3726,1.3759 8.3866,1.3759 2.9484,0 5.5037,-0.45864 7.6003,-1.3759 2.0966,-0.91728 3.7346,-2.2277 4.8485,-3.8657 1.0483,-1.638 1.638,-3.4726 1.638,-5.5037 0,-2.6863 -1.0483,-4.914 -3.0139,-6.6175 -1.9656,-1.7035 -5.3726,-3.0139 -10.09,-3.9967 -2.3587,-0.45864 -4.1278,-0.91728 -5.3071,-1.4414 -1.2449,-0.52416 -2.0966,-1.0483 -2.4898,-1.638 -0.45864,-0.58968 -0.6552,-1.3104 -0.6552,-2.2277 0,-1.1794 0.58968,-2.1622 1.9001,-2.8174 1.31042,-0.6552 2.9484,-1.0483 4.9795,-1.0483 1.7035,0 3.2105,0.26208 4.4554,0.6552 1.1794,0.39312 2.3587,1.1138 3.4726,2.0966 0.91728,0.85176 1.9001,1.2449 3.0794,1.2449 0.72072,0 1.3104,-0.13104 1.8346,-0.52416 0.72072,-0.58968 1.1138,-1.2449 1.1138,-2.0311 0,-0.6552 -0.3276,-1.3759 -0.85176,-2.0966 -1.3104,-1.5725 -3.145,-2.8829 -5.3726,-3.8002 z"
   fill="#f93d4e" />&#10;&#10; </g>&#10;&#10;</svg>
